<svg width="232" height="52" viewBox="0 0 232 52" fill="none" xmlns="http://www.w3.org/2000/svg">
  <!-- Icon: Cipher Cloud shield+cloud+lock -->
  <svg x="0" y="2" width="42" height="48" viewBox="0 0 48 52" fill="none" xmlns="http://www.w3.org/2000/svg">
    <defs>
      <linearGradient id="cc-g-a" x1="0" y1="0" x2="48" y2="52" gradientUnits="userSpaceOnUse">
        <stop offset="0%" stop-color="#00CFFF"/>
        <stop offset="100%" stop-color="#7B2FFF"/>
      </linearGradient>
    </defs>
    <path d="M24 1 L46 9 L46 26 C46 39 36 49 24 52 C12 49 2 39 2 26 L2 9 Z"
          fill="url(#cc-g-a)" opacity="0.18"/>
    <path d="M24 1 L46 9 L46 26 C46 39 36 49 24 52 C12 49 2 39 2 26 L2 9 Z"
          stroke="url(#cc-g-a)" stroke-width="1.5" fill="none"/>
    <path d="M32 27 H16 C13.5 27 11.5 25 11.5 22.5 C11.5 20.3 13.2 18.5 15.4 18.2 C15.1 17.5 15 16.8 15 16 C15 13.2 17.2 11 20 11 C20.9 11 21.8 11.25 22.5 11.7 C23.6 9.4 26 8 28.7 8 C33 8 36.5 11.5 36.5 15.8 C36.5 16.2 36.4 16.6 36.3 16.9 C37.7 17.7 38.5 19.2 38.5 20.8 C38.5 24.2 35.6 27 32 27 Z"
          fill="url(#cc-g-a)" opacity="0.9"/>
    <rect x="18" y="29" width="12" height="9" rx="2" fill="url(#cc-g-a)" opacity="0.85"/>
    <path d="M20.5 29 V26.5 C20.5 24.6 22.1 23 24 23 C25.9 23 27.5 24.6 27.5 26.5 V29"
          stroke="url(#cc-g-a)" stroke-width="2" fill="none" stroke-linecap="round"/>
    <circle cx="24" cy="33.5" r="1.8" fill="white" opacity="0.9"/>
  </svg>
  <!-- Wordmark: white text for auth pages (dark background) -->
  <text x="54" y="34"
        font-family="Inter,-apple-system,BlinkMacSystemFont,Segoe UI,sans-serif"
        font-size="24" font-weight="700" fill="#FFFFFF" letter-spacing="-0.4">Cipher Cloud</text>
</svg>
