<?xml version="1.0" encoding="UTF-8"?>
<svg version="1.1" xmlns="http://www.w3.org/2000/svg" width="627" height="157">
<path d="M0 0 C3.69802059 1.313936 6.04485459 4.19099151 8.76879883 6.92700195 C9.36241211 7.49225586 9.95602539 8.05750977 10.56762695 8.63989258 C14.17821115 12.23400889 15.66393039 14.4914803 16.08129883 19.73950195 C17.76145042 21.12269782 17.76145042 21.12269782 20.08129883 21.73950195 C21.15379883 22.11075195 22.22629883 22.48200195 23.33129883 22.86450195 C24.69254883 23.29762695 24.69254883 23.29762695 26.08129883 23.73950195 C26.57629883 23.24450195 26.57629883 23.24450195 27.08129883 22.73950195 C28.86201129 22.65223972 30.64613023 22.63251154 32.42895508 22.6418457 C33.50854492 22.64506836 34.58813477 22.64829102 35.70043945 22.65161133 C37.40490234 22.66417969 37.40490234 22.66417969 39.14379883 22.67700195 C40.8540625 22.68376953 40.8540625 22.68376953 42.59887695 22.69067383 C45.42640234 22.70250448 48.25382523 22.71898786 51.08129883 22.73950195 C51.11043704 26.30198466 51.12814411 29.86443649 51.14379883 33.42700195 C51.15217773 34.4344043 51.16055664 35.44180664 51.16918945 36.47973633 C51.17241211 37.45620117 51.17563477 38.43266602 51.17895508 39.4387207 C51.18419189 40.33421631 51.18942871 41.22971191 51.19482422 42.15234375 C51.08129883 44.73950195 51.08129883 44.73950195 50.51660156 47.38720703 C49.83566859 51.06684201 51.01614754 52.67306519 53.08129883 55.73950195 C54.98604781 57.35476266 56.96373857 58.78862783 59.00708008 60.22387695 C62.0634862 62.45718312 64.5354783 64.93909937 67.08129883 67.73950195 C67.08129883 68.39950195 67.08129883 69.05950195 67.08129883 69.73950195 C67.74129883 69.73950195 68.40129883 69.73950195 69.08129883 69.73950195 C70.76879883 71.48950195 70.76879883 71.48950195 72.08129883 73.73950195 C71.66988577 79.75641796 65.22491599 83.96573867 61.08129883 87.73950195 C56.07622269 91.73950195 56.07622269 91.73950195 53.08129883 91.73950195 C51.25188031 95.50595184 50.84967199 97.7087232 52.08129883 101.73950195 C52.41129883 102.06950195 52.74129883 102.39950195 53.08129883 102.73950195 C53.09802144 104.52243257 53.04412809 106.30612531 52.96020508 108.0871582 C52.91710205 109.05919189 52.87399902 110.03122559 52.82958984 111.03271484 C52.73762329 112.89851196 52.73762329 112.89851196 52.64379883 114.80200195 C52.36536133 120.71106445 52.36536133 120.71106445 52.08129883 126.73950195 C43.83129883 126.73950195 35.58129883 126.73950195 27.08129883 126.73950195 C26.75129883 126.07950195 26.42129883 125.41950195 26.08129883 124.73950195 C24.07668584 125.39216665 22.07750049 126.06154667 20.08129883 126.73950195 C19.15317383 127.02825195 18.22504883 127.31700195 17.26879883 127.61450195 C16.54692383 127.98575195 15.82504883 128.35700195 15.08129883 128.73950195 C14.96141602 129.31571289 14.8415332 129.89192383 14.71801758 130.4855957 C13.81068249 133.69745058 11.94271828 135.4770732 9.70629883 137.92700195 C8.91481445 138.80743164 8.12333008 139.68786133 7.30786133 140.5949707 C5.08129883 142.73950195 5.08129883 142.73950195 2.08129883 143.73950195 C2.08129883 144.39950195 2.08129883 145.05950195 2.08129883 145.73950195 C0.43129883 146.39950195 -1.21870117 147.05950195 -2.91870117 147.73950195 C-5.15645578 145.56064755 -7.3822061 143.36989219 -9.60620117 141.17700195 C-10.23204102 140.56791992 -10.85788086 139.95883789 -11.50268555 139.33129883 C-14.53508381 136.33065343 -17.27689931 133.38347008 -19.69995117 129.86450195 C-21.98752416 126.64256817 -23.16052848 125.70588922 -26.91870117 124.73950195 C-27.24870117 125.06950195 -27.57870117 125.39950195 -27.91870117 125.73950195 C-29.84537625 125.82698403 -31.77521978 125.84647529 -33.70385742 125.8371582 C-35.45859375 125.83232422 -35.45859375 125.83232422 -37.2487793 125.82739258 C-38.48047852 125.81901367 -39.71217773 125.81063477 -40.98120117 125.80200195 C-42.83455078 125.79523438 -42.83455078 125.79523438 -44.7253418 125.78833008 C-47.78984234 125.77649803 -50.85424839 125.76001369 -53.91870117 125.73950195 C-53.89251709 124.85689697 -53.86633301 123.97429199 -53.83935547 123.06494141 C-53.75389843 119.77538615 -53.69134372 116.48701774 -53.64404297 113.19677734 C-53.6189697 111.77568905 -53.58490119 110.35472882 -53.54150391 108.93408203 C-53.48052259 106.88582733 -53.45242355 104.83928312 -53.43041992 102.7902832 C-53.40423584 101.55963135 -53.37805176 100.32897949 -53.35107422 99.06103516 C-54.32968606 93.33457746 -58.84138641 90.65953635 -63.29370117 87.36450195 C-66.30390092 85.04119343 -69.24439105 82.68986726 -72.04370117 80.11450195 C-72.6237793 79.58598633 -73.20385742 79.0574707 -73.80151367 78.51293945 C-74.91870117 76.73950195 -74.91870117 76.73950195 -75.01635742 74.46606445 C-73.35300974 70.33433249 -70.41774029 67.77986955 -67.23120117 64.73950195 C-66.61825195 64.1362207 -66.00530273 63.53293945 -65.3737793 62.91137695 C-62.53106136 60.1379936 -59.66487602 57.50195066 -56.54760742 55.0402832 C-54.0836275 52.88384312 -53.15484147 52.04381748 -52.54370117 48.92700195 C-52.33745117 47.87512695 -52.13120117 46.82325195 -51.91870117 45.73950195 C-52.57870117 45.40950195 -53.23870117 45.07950195 -53.91870117 44.73950195 C-53.91870117 37.47950195 -53.91870117 30.21950195 -53.91870117 22.73950195 C-50.00198861 22.7125521 -46.08546118 22.69268692 -42.16870117 22.67700195 C-41.0575293 22.66862305 -39.94635742 22.66024414 -38.80151367 22.65161133 C-37.7315918 22.64838867 -36.66166992 22.64516602 -35.55932617 22.6418457 C-34.57480469 22.63660889 -33.5902832 22.63137207 -32.57592773 22.62597656 C-30.18449 22.72814659 -28.22219551 23.1612362 -25.91870117 23.73950195 C-24.00352302 22.97056833 -24.00352302 22.97056833 -22.29370117 21.61450195 C-21.70331055 21.19942383 -21.11291992 20.7843457 -20.50463867 20.35668945 C-18.76127654 18.79692187 -18.76127654 18.79692187 -18.04370117 16.41137695 C-16.5749395 12.92306797 -14.22901487 10.68674981 -11.54370117 8.11450195 C-11.0615918 7.63754883 -10.57948242 7.1605957 -10.08276367 6.66918945 C-2.86741578 -0.38930305 -2.86741578 -0.38930305 0 0 Z M-19.47338867 60.7043457 C-23.95190724 67.01058402 -23.580397 73.17241638 -22.91870117 80.73950195 C-21.44376419 86.67659008 -17.97170288 90.17778165 -12.98510742 93.5480957 C-6.73521109 97.1515331 -0.80689664 97.25911996 6.08129883 95.73950195 C11.9837821 93.53606042 16.20997703 89.42953811 19.05395508 83.8215332 C21.47533556 77.99895781 21.91562576 72.80408532 19.95629883 66.73950195 C17.39801834 60.62805413 13.73745464 56.27070511 7.76879883 53.30200195 C-3.04509614 49.09256633 -12.25168337 51.98791535 -19.47338867 60.7043457 Z " fill="#C5BDB8" transform="translate(82.918701171875,5.260498046875)"/>
<path d="M0 0 C2.96456132 1.31124828 4.63626535 2.64595505 6.75 5.0625 C12.14521331 9.95749485 20.13069516 8.98350707 27 9 C26.979375 10.134375 26.95875 11.26875 26.9375 12.4375 C26.75249611 21.03968184 26.75249611 21.03968184 29.8828125 28.76953125 C32.06047183 30.82839613 32.06047183 30.82839613 34.3828125 32.45703125 C34.91648437 32.96621094 35.45015625 33.47539063 36 34 C35.80273455 36.97025399 35.03086684 37.96415463 33.0625 40.25 C31 42 31 42 29 42 C29 43.32 29 44.64 29 46 C31.97 43.36 34.94 40.72 38 38 C40.98247665 39.49123832 42.81487622 40.52079355 45.234375 42.6015625 C45.80800781 43.09140625 46.38164063 43.58125 46.97265625 44.0859375 C47.55917969 44.59382813 48.14570313 45.10171875 48.75 45.625 C49.35199219 46.140625 49.95398438 46.65625 50.57421875 47.1875 C52.05260866 48.45469135 53.52673171 49.72685775 55 51 C54.45689095 53.73411308 53.90024218 56.46251353 53.3125 59.1875 C53.209375 60.115625 53.10625 61.04375 53 62 C53.66 62.66 54.32 63.32 55 64 C55.13525391 66.43017578 55.13525391 66.43017578 54.9765625 69.4453125 C54.93096191 70.41484863 54.88536133 71.38438477 54.83837891 72.38330078 C54.76796387 73.61806152 54.69754883 74.85282227 54.625 76.125 C54.41875 80.04375 54.2125 83.9625 54 88 C45.75 88 37.5 88 29 88 C28.67 87.34 28.34 86.68 28 86 C25.99538701 86.65266469 23.99620166 87.32204472 22 88 C21.071875 88.28875 20.14375 88.5775 19.1875 88.875 C18.465625 89.24625 17.74375 89.6175 17 90 C16.88011719 90.57621094 16.76023438 91.15242188 16.63671875 91.74609375 C15.72938366 94.95794863 13.86141945 96.73757125 11.625 99.1875 C10.83351562 100.06792969 10.04203125 100.94835937 9.2265625 101.85546875 C7 104 7 104 4 105 C4 105.66 4 106.32 4 107 C1.525 107.99 1.525 107.99 -1 109 C-3.23775461 106.8211456 -5.46350493 104.63039024 -7.6875 102.4375 C-8.31333984 101.82841797 -8.93917969 101.21933594 -9.58398438 100.59179688 C-12.61909197 97.58847051 -15.37500589 94.62788337 -17.81640625 91.1171875 C-19.88783265 88.16012441 -20.77451381 87.26715529 -24 86 C-25.20029908 83.59940183 -25.11459743 82.10639351 -25.09765625 79.4296875 C-25.09443359 78.53378906 -25.09121094 77.63789062 -25.08789062 76.71484375 C-25.07951172 75.77769531 -25.07113281 74.84054688 -25.0625 73.875 C-25.05798828 72.93011719 -25.05347656 71.98523438 -25.04882812 71.01171875 C-25.03702375 68.6744523 -25.01908799 66.33721831 -25 64 C-19.06 63.505 -19.06 63.505 -13 63 C-16.96 62.67 -20.92 62.34 -25 62 C-24.99097656 60.84242187 -24.98195313 59.68484375 -24.97265625 58.4921875 C-24.74984189 50.20373401 -24.74984189 50.20373401 -27.5546875 42.7109375 C-29.37319661 41.2248738 -29.37319661 41.2248738 -31.30859375 40.203125 C-33.64381302 38.54204524 -34.12141547 36.66665856 -35 34 C-34.36191406 33.52433594 -33.72382812 33.04867187 -33.06640625 32.55859375 C-28.89281664 29.02308804 -26.31947721 26.58784941 -25.21484375 21.09765625 C-25.00878606 18.40283312 -25 15.77201148 -25 13.0625 C-25 10 -25 10 -24 9 C-21.6667274 8.97321498 -19.33337007 8.95370396 -17 8.9375 C-10.02254997 8.71242097 -6.24939656 6.7530509 -1.44140625 1.71484375 C-0.72791016 0.86599609 -0.72791016 0.86599609 0 0 Z M-17.5546875 21.96484375 C-22.03320607 28.27108206 -21.66169582 34.43291442 -21 42 C-19.52506301 47.93708812 -16.05300171 51.43827969 -11.06640625 54.80859375 C-4.81650992 58.41203114 1.11180453 58.519618 8 57 C13.90248327 54.79655847 18.1286782 50.69003616 20.97265625 45.08203125 C23.39403673 39.25945585 23.83432694 34.06458337 21.875 28 C19.31671952 21.88855218 15.65615581 17.53120315 9.6875 14.5625 C-1.12639497 10.35306438 -10.3329822 13.2484134 -17.5546875 21.96484375 Z " fill="#BFAB9E" transform="translate(81,44)"/>
<path d="M0 0 C7.59 0 15.18 0 23 0 C24.92811839 15.42494715 24.92811839 15.42494715 22.28515625 19.91015625 C20.28509348 21.84694814 18.33689245 23.49150268 16 25 C17.43237376 28.95515817 18.5570793 30.58995551 22 33 C22 33.66 22 34.32 22 35 C22.99 35.33 23.98 35.66 25 36 C25 41.61 25 47.22 25 53 C26.918125 52.95875 28.83625 52.9175 30.8125 52.875 C36.625 52.75 36.625 52.75 40 55 C35.05 55 30.1 55 25 55 C25.09539063 56.49273437 25.19078125 57.98546875 25.2890625 59.5234375 C25.40159073 61.47392673 25.51353997 63.42444943 25.625 65.375 C25.68945312 66.35984375 25.75390625 67.3446875 25.8203125 68.359375 C25.871875 69.30039063 25.9234375 70.24140625 25.9765625 71.2109375 C26.02893066 72.08024902 26.08129883 72.94956055 26.13525391 73.84521484 C26 76 26 76 24 78 C21.38623047 78.22705078 21.38623047 78.22705078 18.1171875 78.1953125 C16.36728516 78.18564453 16.36728516 78.18564453 14.58203125 78.17578125 C13.35871094 78.15902344 12.13539062 78.14226562 10.875 78.125 C9.64394531 78.11597656 8.41289063 78.10695313 7.14453125 78.09765625 C4.09616185 78.07402548 1.04817618 78.04108054 -2 78 C-1.97381592 77.11739502 -1.94763184 76.23479004 -1.9206543 75.32543945 C-1.83519725 72.0358842 -1.77264255 68.74751578 -1.7253418 65.45727539 C-1.70026853 64.03618709 -1.66620001 62.61522687 -1.62280273 61.19458008 C-1.56182142 59.14632538 -1.53372238 57.09978117 -1.51171875 55.05078125 C-1.48553467 53.82012939 -1.45935059 52.58947754 -1.43237305 51.3215332 C-2.41098489 45.59507551 -6.92268523 42.92003439 -11.375 39.625 C-14.38519974 37.30169147 -17.32568988 34.95036531 -20.125 32.375 C-20.99511719 31.58222656 -20.99511719 31.58222656 -21.8828125 30.7734375 C-23 29 -23 29 -23.09765625 26.7265625 C-21.43430857 22.59483054 -18.49903912 20.0403676 -15.3125 17 C-14.69955078 16.39671875 -14.08660156 15.7934375 -13.45507812 15.171875 C-10.62738144 12.41314653 -7.78655678 9.80088434 -4.66796875 7.375 C-1.55070991 4.95597024 -1.55070991 4.95597024 0 0 Z " fill="#C2B2A9" transform="translate(31,53)"/>
<path d="M0 0 C2.96456132 1.31124828 4.63626535 2.64595505 6.75 5.0625 C12.14521331 9.95749485 20.13069516 8.98350707 27 9 C26.979375 10.134375 26.95875 11.26875 26.9375 12.4375 C26.75249611 21.03968184 26.75249611 21.03968184 29.8828125 28.76953125 C32.06047183 30.82839613 32.06047183 30.82839613 34.3828125 32.45703125 C34.91648437 32.96621094 35.45015625 33.47539063 36 34 C35.80273455 36.97025399 35.03086684 37.96415463 33.0625 40.25 C31 42 31 42 29 42 C27.76240177 45.71279469 27.64391103 49.31306346 27.4375 53.1875 C27.37272461 54.31188477 27.37272461 54.31188477 27.30664062 55.45898438 C27.20077315 57.30578375 27.0999024 59.15286834 27 61 C26.01 60.979375 25.02 60.95875 24 60.9375 C16.26099883 60.87150164 16.26099883 60.87150164 9.29296875 63.84765625 C7.17848998 66.00722479 7.17848998 66.00722479 5.41796875 68.28515625 C4.95003906 68.85105469 4.48210937 69.41695313 4 70 C3.34 70 2.68 70 2 70 C2 70.66 2 71.32 2 72 C-1.2279858 70.62741629 -2.68196238 69.22005623 -4.75 66.4375 C-8.51129422 62.43541652 -12.21374509 62.2779656 -17.4375 62.0625 C-19.96317615 61.99135809 -22.47252236 61.97876069 -25 62 C-24.99097656 60.84242187 -24.98195313 59.68484375 -24.97265625 58.4921875 C-24.74984189 50.20373401 -24.74984189 50.20373401 -27.5546875 42.7109375 C-29.37319661 41.2248738 -29.37319661 41.2248738 -31.30859375 40.203125 C-33.64381302 38.54204524 -34.12141547 36.66665856 -35 34 C-34.36191406 33.52433594 -33.72382812 33.04867187 -33.06640625 32.55859375 C-28.89281664 29.02308804 -26.31947721 26.58784941 -25.21484375 21.09765625 C-25.00878606 18.40283312 -25 15.77201148 -25 13.0625 C-25 10 -25 10 -24 9 C-21.6667274 8.97321498 -19.33337007 8.95370396 -17 8.9375 C-10.02254997 8.71242097 -6.24939656 6.7530509 -1.44140625 1.71484375 C-0.72791016 0.86599609 -0.72791016 0.86599609 0 0 Z M-17.5546875 21.96484375 C-22.03320607 28.27108206 -21.66169582 34.43291442 -21 42 C-19.52506301 47.93708812 -16.05300171 51.43827969 -11.06640625 54.80859375 C-4.81650992 58.41203114 1.11180453 58.519618 8 57 C13.90248327 54.79655847 18.1286782 50.69003616 20.97265625 45.08203125 C23.39403673 39.25945585 23.83432694 34.06458337 21.875 28 C19.31671952 21.88855218 15.65615581 17.53120315 9.6875 14.5625 C-1.12639497 10.35306438 -10.3329822 13.2484134 -17.5546875 21.96484375 Z " fill="#1A1A19" transform="translate(81,44)"/>
<path d="M0 0 C1.875 0.875 1.875 0.875 3.875 3.875 C3.215 3.875 2.555 3.875 1.875 3.875 C1.875 4.865 1.875 5.855 1.875 6.875 C1.26011719 6.90078125 0.64523438 6.9265625 0.01171875 6.953125 C-4.88108206 7.21268472 -4.88108206 7.21268472 -9.125 9.375 C-10.72454449 13.37386123 -11.93521586 16.5340874 -11.125 20.875 C-9.01683494 23.96331394 -6.71392447 26.59740559 -4.12890625 29.296875 C-1.84727525 32.23230669 -1.87500506 33.28970675 -2.125 36.875 C-1.465 37.535 -0.805 38.195 -0.125 38.875 C-0.66769531 39.27332031 -1.21039063 39.67164063 -1.76953125 40.08203125 C-2.48496094 40.61183594 -3.20039062 41.14164063 -3.9375 41.6875 C-4.99904297 42.47060547 -4.99904297 42.47060547 -6.08203125 43.26953125 C-8.13443172 44.74811513 -8.13443172 44.74811513 -9.40625 46.53125 C-12.18861476 48.70655336 -15.41524042 48.45059794 -18.8125 48.5625 C-21.225625 48.665625 -23.63875 48.76875 -26.125 48.875 C-26.455 53.825 -26.785 58.775 -27.125 63.875 C-27.785 63.875 -28.445 63.875 -29.125 63.875 C-29.125 58.595 -29.125 53.315 -29.125 47.875 C-30.67832031 47.90980469 -32.23164062 47.94460937 -33.83203125 47.98046875 C-35.86717671 48.0086044 -37.90233383 48.0359048 -39.9375 48.0625 C-40.96166016 48.08763672 -41.98582031 48.11277344 -43.04101562 48.13867188 C-44.51538086 48.15317383 -44.51538086 48.15317383 -46.01953125 48.16796875 C-46.92550049 48.1836792 -47.83146973 48.19938965 -48.76489258 48.21557617 C-51.125 47.875 -51.125 47.875 -52.92578125 46.67578125 C-54.53581524 44.25810806 -54.46810508 42.66072624 -54.41796875 39.76953125 C-54.40830078 38.78662109 -54.39863281 37.80371094 -54.38867188 36.79101562 C-54.36353516 35.76685547 -54.33839844 34.74269531 -54.3125 33.6875 C-54.29896484 32.65173828 -54.28542969 31.61597656 -54.27148438 30.54882812 C-54.23611389 27.99036301 -54.18675544 25.4329422 -54.125 22.875 C-50.20834892 22.84595136 -46.2917256 22.82818483 -42.375 22.8125 C-41.26382813 22.80412109 -40.15265625 22.79574219 -39.0078125 22.78710938 C-37.93789063 22.78388672 -36.86796875 22.78066406 -35.765625 22.77734375 C-34.78110352 22.77210693 -33.79658203 22.76687012 -32.78222656 22.76147461 C-30.39078883 22.86364463 -28.42849434 23.29673425 -26.125 23.875 C-24.20982184 23.10606637 -24.20982184 23.10606637 -22.5 21.75 C-21.90960938 21.33492187 -21.31921875 20.91984375 -20.7109375 20.4921875 C-18.96757536 18.93241991 -18.96757536 18.93241991 -18.25 16.546875 C-16.78123832 13.05856602 -14.4353137 10.82224786 -11.75 8.25 C-11.26789063 7.77304688 -10.78578125 7.29609375 -10.2890625 6.8046875 C-3.14410257 -0.18494721 -3.14410257 -0.18494721 0 0 Z " fill="#BFB6AD" transform="translate(83.125,5.125)"/>
<path d="M0 0 C3.63 0 7.26 0 11 0 C11 17.82 11 35.64 11 54 C7.37 54 3.74 54 0 54 C-0.33 53.01 -0.66 52.02 -1 51 C-1.78375 51.66 -2.5675 52.32 -3.375 53 C-7.65630314 55.84067507 -12.03712235 55.79890226 -17 55 C-21.48035444 52.80055327 -23.86312614 50.49868182 -26 46 C-27.29062016 42.14619017 -27.22029393 38.2089594 -27.25 34.1875 C-27.270625 33.50107422 -27.29125 32.81464844 -27.3125 32.10742188 C-27.36142981 25.64257069 -25.82941422 21.05251351 -21.4375 16.125 C-18.18289621 13.28765311 -16.48499267 12.80941646 -12.25 12.6875 C-11.40953125 12.65011719 -10.5690625 12.61273438 -9.703125 12.57421875 C-7 13 -7 13 -1 17 C-0.67 11.39 -0.34 5.78 0 0 Z M-15 24 C-16.14888581 27.44665742 -16.2039347 30.24351905 -16.25 33.875 C-16.27578125 35.08929688 -16.3015625 36.30359375 -16.328125 37.5546875 C-15.97446831 41.26808278 -15.25141594 43.06474277 -13 46 C-10.18401813 48.30260759 -10.18401813 48.30260759 -7 47.875 C-3.95816285 47.24866588 -3.95816285 47.24866588 -2.1875 45.1875 C0.78331114 39.71495317 0.95558792 32.84343084 -0.53125 26.86328125 C-1.59011414 24.11829107 -2.59427092 22.29161778 -5 20.5625 C-9.73561646 19.23060787 -11.55551281 20.82744601 -15 24 Z " fill="#1F2323" transform="translate(602,49)"/>
<path d="M0 0 C5.16192097 3.90721097 6.85622991 8.77247159 7.89453125 15.01171875 C8.76655188 23.5209523 7.38015296 31.27224065 1.89453125 38.01171875 C-1.83925892 41.21211033 -5.20978974 41.46630941 -9.95703125 41.30859375 C-12.89047312 40.90324542 -14.77100266 39.7968987 -17.10546875 38.01171875 C-18.09546875 37.35171875 -19.08546875 36.69171875 -20.10546875 36.01171875 C-20.10546875 42.61171875 -20.10546875 49.21171875 -20.10546875 56.01171875 C-23.40546875 56.01171875 -26.70546875 56.01171875 -30.10546875 56.01171875 C-30.10546875 37.53171875 -30.10546875 19.05171875 -30.10546875 0.01171875 C-26.80546875 0.01171875 -23.50546875 0.01171875 -20.10546875 0.01171875 C-19.77546875 1.33171875 -19.44546875 2.65171875 -19.10546875 4.01171875 C-18.50734375 3.37234375 -17.90921875 2.73296875 -17.29296875 2.07421875 C-12.85824053 -2.10709643 -5.47293298 -2.56892773 0 0 Z M-15.79296875 7.51171875 C-19.29359594 11.29618058 -20.07791154 14.61079641 -20.13671875 19.734375 C-19.90034967 24.12493066 -19.52237708 27.26723958 -17.35546875 31.13671875 C-14.75534031 33.30349245 -13.5029423 34.09458396 -10.10546875 34.01171875 C-7.40988427 32.23508353 -5.55904652 30.9188743 -4.10546875 28.01171875 C-3.92805642 25.3912514 -3.82799624 22.82160992 -3.79296875 20.19921875 C-3.74946289 19.1309082 -3.74946289 19.1309082 -3.70507812 18.04101562 C-3.66040035 14.32588651 -3.96676846 12.2305054 -5.97265625 9.06640625 C-7.9721568 6.90148216 -7.9721568 6.90148216 -10.54296875 5.94921875 C-13.24523849 5.81601842 -13.24523849 5.81601842 -15.79296875 7.51171875 Z " fill="#121617" transform="translate(277.10546875,62.98828125)"/>
<path d="M0 0 C2.44076254 2.43586141 4.44226521 4.9161917 6 8 C6 8.99 6 9.98 6 11 C2.7 11.66 -0.6 12.32 -4 13 C-5.20442708 11.47005208 -6.40885417 9.94010417 -7.61328125 8.41015625 C-10.2390627 5.7399954 -13.33574421 5.8145457 -16.875 5.75 C-21.08328231 5.81125593 -23.77607804 6.06916185 -27 9 C-29.80155343 13.62154069 -30.40777213 17.12537095 -30.375 22.5 C-30.38273438 23.7684375 -30.39046875 25.036875 -30.3984375 26.34375 C-29.85492605 31.33126684 -28.20448207 34.61302064 -24.9375 38.375 C-20.64195008 40.75126166 -16.80413406 40.65006434 -12 40 C-7.8048657 38.26722714 -5.65070043 35.63244133 -3 32 C0.3 32.99 3.6 33.98 7 35 C4.20104184 42.05824231 0.78546575 45.54753591 -6 49 C-12.90549994 51.37421801 -22.17670914 51.14603366 -28.9375 48.5 C-34.5875544 45.52739675 -38.59299349 40.87796786 -41.375 35.1875 C-43.3585492 25.07139909 -44.04898662 14.94167186 -38.875 5.625 C-35.74350542 1.0996651 -31.37622295 -1.87699194 -26.16796875 -3.609375 C-17.37824524 -5.19310897 -7.6269824 -5.04274844 0 0 Z " fill="#191C1D" transform="translate(212,54)"/>
<path d="M0 0 C3.62625816 2.39758094 6.17766998 5.53960987 8.1328125 9.41015625 C8.1328125 10.40015625 8.1328125 11.39015625 8.1328125 12.41015625 C4.8328125 13.07015625 1.5328125 13.73015625 -1.8671875 14.41015625 C-2.5271875 13.09015625 -3.1871875 11.77015625 -3.8671875 10.41015625 C-7.87149759 6.79336004 -12.13353844 6.96010084 -17.2734375 7.1328125 C-20.62978433 7.49169898 -22.42322195 8.04256463 -24.8671875 10.41015625 C-29.01067445 16.98258383 -29.03445233 25.18913447 -27.36328125 32.6640625 C-25.8067114 36.78230159 -23.74180844 39.39212451 -19.8671875 41.41015625 C-14.94307646 42.06274928 -10.51149088 42.06102634 -5.8671875 40.22265625 C-3.601035 38.16895554 -2.25979367 36.12207352 -0.8671875 33.41015625 C2.69061446 34.02006516 5.8156714 34.98852435 9.1328125 36.41015625 C7.16687587 42.48668765 3.86505202 46.79674046 -1.7421875 49.78515625 C-9.00540049 52.65891498 -17.37615756 52.68909785 -24.84375 50.5625 C-31.81727663 47.4549617 -36.12754925 42.66327184 -39 35.640625 C-41.28929462 27.11248693 -41.07723649 16.54644722 -37.265625 8.53125 C-29.06013713 -3.91450395 -13.09566699 -6.02919322 0 0 Z " fill="#16191A" transform="translate(447.8671875,52.58984375)"/>
<path d="M0 0 C3.3 0 6.6 0 10 0 C11.65497356 3.30994713 11.10084335 6.99123 11.0625 10.625 C11.05798828 11.42679688 11.05347656 12.22859375 11.04882812 13.0546875 C11.03703168 15.03649006 11.01909605 17.01825433 11 19 C11.78375 18.195625 12.5675 17.39125 13.375 16.5625 C16.58062704 13.43319741 17.97613809 12.83745604 22.3125 12.75 C26.3653396 12.80204288 28.79190969 13.35804327 32 16 C35.93310272 20.49497454 36.12151626 24.22851533 36.09765625 30.07421875 C36.0962413 30.7580513 36.09482635 31.44188385 36.09336853 32.1464386 C36.08777876 34.32683722 36.07522822 36.50713251 36.0625 38.6875 C36.05748367 40.16731622 36.052921 41.64713406 36.04882812 43.12695312 C36.03781271 46.75133557 36.02055512 50.3756577 36 54 C32.37 54 28.74 54 25 54 C24.98541748 53.13721436 24.97083496 52.27442871 24.95581055 51.38549805 C24.89472246 48.18150353 24.82056451 44.97815375 24.73754883 41.7746582 C24.70431451 40.38870623 24.67627774 39.00261939 24.65356445 37.61645508 C24.61999383 35.62293157 24.56612 33.62978259 24.51171875 31.63671875 C24.48553467 30.43748779 24.45935059 29.23825684 24.43237305 28.00268555 C24.22687382 25.0348867 24.22687382 25.0348867 22.69848633 23.06567383 C19.83672669 21.27013253 17.15895913 22.34436697 14 23 C10.98094833 29.73418496 10.47307259 35.66871444 10.3125 43 C10.27833984 44.06089844 10.24417969 45.12179688 10.20898438 46.21484375 C10.12716959 48.80954111 10.06189327 51.40475102 10 54 C6.7 54 3.4 54 0 54 C0 36.18 0 18.36 0 0 Z " fill="#0B0F10" transform="translate(293,49)"/>
<path d="M0 0 C4.95927776 3.71945832 8.25466505 7.7615375 9.5 13.875 C10.18159086 22.60179722 9.45425544 28.23259859 4.75 35.625 C0.01183379 40.36316621 -4.43556116 41.09656049 -10.9375 41.375 C-17.00322806 41.22161377 -21.06363584 40.07097004 -25.5 35.875 C-31.16251441 28.61536614 -31.21368568 21.8258079 -30.5 12.875 C-28.98133996 7.46890041 -26.27396788 3.90239426 -21.5 0.875 C-14.85175962 -2.31109444 -6.95180148 -2.23450762 0 0 Z M-17.5 8.875 C-20.31831765 13.9992139 -20.05083964 20.17169113 -19.5 25.875 C-18.30814789 29.27177851 -17.48767113 31.09167462 -14.6875 33.3125 C-11.63774222 34.09672343 -9.51881977 33.7099927 -6.5 32.875 C-3.55654 30.77252857 -2.45351975 28.32234064 -1.5 24.875 C-0.88226744 18.60181937 -1.03102816 13.24631124 -4.5 7.875 C-9.68783413 5.33002477 -12.84237107 5.40885754 -17.5 8.875 Z " fill="#181B1C" transform="translate(513.5,63.125)"/>
<path d="M0 0 C3.63 0 7.26 0 11 0 C11.01458252 0.79172607 11.02916504 1.58345215 11.04418945 2.39916992 C11.11878356 5.99576543 11.21540833 9.59144443 11.3125 13.1875 C11.33505859 14.43337891 11.35761719 15.67925781 11.38085938 16.96289062 C11.41630859 18.16494141 11.45175781 19.36699219 11.48828125 20.60546875 C11.51446533 21.71043701 11.54064941 22.81540527 11.56762695 23.95385742 C12.05019548 27.3536358 12.89989576 29.29597255 15 32 C18 32.66666667 18 32.66666667 21 32 C23.55949546 30.14657225 23.97918798 29.06243607 25 26 C25.14986411 24.0093556 25.24828038 22.01464609 25.31640625 20.01953125 C25.35830078 18.85615234 25.40019531 17.69277344 25.44335938 16.49414062 C25.48267578 15.27919922 25.52199219 14.06425781 25.5625 12.8125 C25.60568359 11.58595703 25.64886719 10.35941406 25.69335938 9.09570312 C25.7995309 6.06391619 25.90157952 3.03204685 26 0 C29.63 0 33.26 0 37 0 C37 13.2 37 26.4 37 40 C33.7 40 30.4 40 27 40 C26.34 38.68 25.68 37.36 25 36 C24.21625 36.825 23.4325 37.65 22.625 38.5 C19.04341922 41.47899255 15.96108901 41.66587066 11.40625 41.42578125 C7.07954404 40.66017906 4.18850715 38.69786736 1.6875 35.125 C0.12882216 30.3072685 -0.12161831 25.53984557 -0.09765625 20.5078125 C-0.09443359 19.30898437 -0.09121094 18.11015625 -0.08789062 16.875 C-0.07951172 15.6375 -0.07113281 14.4 -0.0625 13.125 C-0.05798828 11.86429688 -0.05347656 10.60359375 -0.04882812 9.3046875 C-0.0370796 6.20307614 -0.02065167 3.10156275 0 0 Z " fill="#181C1C" transform="translate(530,63)"/>
<path d="M0 0 C4.82403765 2.44864384 6.70330357 5.61622681 8.86328125 10.3515625 C10.13026935 14.57485616 9.86328125 17.70179147 9.86328125 22.3515625 C1.61328125 22.3515625 -6.63671875 22.3515625 -15.13671875 22.3515625 C-13.72627685 29.54531558 -13.72627685 29.54531558 -11.94921875 32.4140625 C-8.86467312 34.00951713 -6.38758939 33.17905684 -3.13671875 32.3515625 C-2.47671875 31.3615625 -1.81671875 30.3715625 -1.13671875 29.3515625 C0.73828125 29.0234375 0.73828125 29.0234375 2.86328125 29.1015625 C3.56453125 29.11703125 4.26578125 29.1325 4.98828125 29.1484375 C6.86328125 29.3515625 6.86328125 29.3515625 8.86328125 30.3515625 C7.42507312 35.38529094 4.9608261 37.34112139 0.86328125 40.3515625 C-4.50687509 42.14161461 -10.89906641 42.35615321 -16.33984375 40.66796875 C-21.53749202 37.94485302 -24.31995899 33.80184179 -26.13671875 28.3515625 C-27.3548258 10.39946027 -27.3548258 10.39946027 -22.13671875 4.3515625 C-15.6493722 -0.81183578 -8.0675428 -2.44828538 0 0 Z M-12.94921875 7.4765625 C-14.61833975 9.84316603 -14.61833975 9.84316603 -15.13671875 15.3515625 C-10.18671875 15.3515625 -5.23671875 15.3515625 -0.13671875 15.3515625 C-1.29223601 8.44680491 -1.29223601 8.44680491 -5.13671875 6.3515625 C-9.24697047 5.92002827 -9.24697047 5.92002827 -12.94921875 7.4765625 Z " fill="#1B1F1F" transform="translate(363.13671875,62.6484375)"/>
<path d="M0 0 C5.92914961 3.67042595 11.59696098 7.50681949 16 13 C16 13.66 16 14.32 16 15 C16.66 15 17.32 15 18 15 C19.6875 16.75 19.6875 16.75 21 19 C20.58858694 25.01691601 14.14361716 29.22623672 10 33 C4.99492386 37 4.99492386 37 2 37 C0.88572218 35.92054336 -0.22053243 34.83197365 -1.29296875 33.7109375 C-5.028127 29.96723198 -9.05317442 26.5176562 -13 23 C-17.26538263 25.03286321 -20.65689427 27.65689427 -24 31 C-24.66 30.34 -25.32 29.68 -26 29 C-21 24 -21 24 -19.125 22.4375 C-17.77351017 21.05492599 -17.77351017 21.05492599 -18.203125 19.125 C-19.19125321 16.48999143 -20.50588721 15.39034032 -22.625 13.5625 C-24.54296875 11.75 -24.54296875 11.75 -26 10 C-25.9375 7.0625 -25.9375 7.0625 -25 5 C-24.195625 6.051875 -24.195625 6.051875 -23.375 7.125 C-20.74874046 10.30415629 -17.94797749 13.119022 -15 16 C-11.41118989 14.43564687 -8.74464082 12.2644923 -5.8125 9.6875 C-4.93207031 8.92824219 -4.05164063 8.16898438 -3.14453125 7.38671875 C-0.83939481 4.82125724 -0.30551276 3.38460213 0 0 Z " fill="#BBACA2" transform="translate(134,60)"/>
<path d="M0 0 C3.63 0 7.26 0 11 0 C11 17.82 11 35.64 11 54 C7.37 54 3.74 54 0 54 C0 36.18 0 18.36 0 0 Z " fill="#181D1D" transform="translate(464,49)"/>
<path d="M0 0 C0.9583374 0.00523682 1.9166748 0.01047363 2.90405273 0.01586914 C3.83548096 0.0183667 4.76690918 0.02086426 5.7265625 0.0234375 C7.51404907 0.03709351 7.51404907 0.03709351 9.33764648 0.05102539 C13.11202148 0.07165039 16.88639648 0.09227539 20.77514648 0.11352539 C20.77514648 7.70352539 20.77514648 15.29352539 20.77514648 23.11352539 C12.85514648 23.11352539 4.93514648 23.11352539 -3.22485352 23.11352539 C-3.24547852 19.50415039 -3.26610352 15.89477539 -3.28735352 12.17602539 C-3.29645752 11.03657471 -3.30556152 9.89712402 -3.31494141 8.72314453 C-3.31743896 7.83232178 -3.31993652 6.94149902 -3.32250977 6.02368164 C-3.32774658 5.10723877 -3.3329834 4.1907959 -3.33837891 3.24658203 C-3.18157127 0.30028463 -2.9484016 0.15044516 0 0 Z " fill="#BCABA0" transform="translate(33.224853515625,107.886474609375)"/>
<path d="M0 0 C3.73698169 1.62477465 5.84763317 3.55621307 8 7 C9.17942085 10.53826255 9.11289189 13.34148726 9.09765625 17.07421875 C9.0962413 17.7580513 9.09482635 18.44188385 9.09336853 19.1464386 C9.08777876 21.32683722 9.07522822 23.50713251 9.0625 25.6875 C9.05748367 27.16731622 9.052921 28.64713406 9.04882812 30.12695312 C9.03781271 33.75133557 9.02055512 37.3756577 9 41 C5.37 41 1.74 41 -2 41 C-2.01458252 40.13721436 -2.02916504 39.27442871 -2.04418945 38.38549805 C-2.10527754 35.18150353 -2.17943549 31.97815375 -2.26245117 28.7746582 C-2.29568549 27.38870623 -2.32372226 26.00261939 -2.34643555 24.61645508 C-2.38000617 22.62293157 -2.43388 20.62978259 -2.48828125 18.63671875 C-2.51446533 17.43748779 -2.54064941 16.23825684 -2.56762695 15.00268555 C-2.77112672 12.03391389 -2.77112672 12.03391389 -4.30932617 10.07348633 C-6.16861976 8.66375252 -6.16861976 8.66375252 -9.5625 9.1875 C-13.04248777 9.69215918 -13.04248777 9.69215918 -15 12 C-15.66 10.35 -16.32 8.7 -17 7 C-11.30152421 1.14751135 -8.10880092 -0.92794377 0 0 Z " fill="#171A1B" transform="translate(320,62)"/>
<path d="M0 0 C1.051875 0.103125 2.10375 0.20625 3.1875 0.3125 C3.1875 3.2825 3.1875 6.2525 3.1875 9.3125 C1.3003125 9.43625 1.3003125 9.43625 -0.625 9.5625 C-4.07238449 9.9812991 -4.07238449 9.9812991 -6.75 12.1875 C-8.57439552 15.83629103 -8.97972182 18.82748919 -9.12890625 22.85546875 C-9.17080078 23.92861328 -9.21269531 25.00175781 -9.25585938 26.10742188 C-9.31483398 27.78674805 -9.31483398 27.78674805 -9.375 29.5 C-9.41818359 30.63115234 -9.46136719 31.76230469 -9.50585938 32.92773438 C-9.61199099 35.72253354 -9.71404385 38.51742162 -9.8125 41.3125 C-13.1125 41.3125 -16.4125 41.3125 -19.8125 41.3125 C-20.1425 28.1125 -20.4725 14.9125 -20.8125 1.3125 C-17.1825 1.3125 -13.5525 1.3125 -9.8125 1.3125 C-9.4825 2.6325 -9.1525 3.9525 -8.8125 5.3125 C-8.131875 4.4875 -7.45125 3.6625 -6.75 2.8125 C-3.8125 0.3125 -3.8125 0.3125 0 0 Z " fill="#0D1011" transform="translate(400.8125,61.6875)"/>
<path d="M0 0 C4.7747916 2.29060948 9.02033841 4.48794101 12 9 C12.71864777 14.29186088 12.38527796 18.55794886 12 24 C4.41 24 -3.18 24 -11 24 C-14.69558714 15.37696335 -14.69558714 15.37696335 -14 12 C-11.953125 9.6484375 -11.953125 9.6484375 -9.25 7.375 C-8.36828125 6.61960937 -7.4865625 5.86421875 -6.578125 5.0859375 C-4.41836081 3.33849193 -2.23964034 1.64310062 0 0 Z " fill="#191C1D" transform="translate(42,82)"/>
<path d="M0 0 C0.763125 0.20625 1.52625 0.4125 2.3125 0.625 C1.3225 2.11 1.3225 2.11 0.3125 3.625 C1.3025 5.11 1.3025 5.11 2.3125 6.625 C2.59930957 10.19015192 2.72698011 13.71527109 2.79101562 17.2890625 C2.9539552 21.83547407 3.33395865 24.95311648 6.3125 28.625 C9.16539698 29.87829784 9.16539698 29.87829784 12.3125 29.625 C15.18215747 27.81411155 15.18215747 27.81411155 17.3125 25.625 C17.3125 26.945 17.3125 28.265 17.3125 29.625 C17.9725 29.955 18.6325 30.285 19.3125 30.625 C19.3125 32.605 19.3125 34.585 19.3125 36.625 C18.6525 35.635 17.9925 34.645 17.3125 33.625 C16.52875 34.285 15.745 34.945 14.9375 35.625 C10.65619686 38.46567507 6.27537765 38.42390226 1.3125 37.625 C-3.16785444 35.42555327 -5.55062614 33.12368182 -7.6875 28.625 C-8.97812016 24.77119017 -8.90779393 20.8339594 -8.9375 16.8125 C-8.958125 16.12607422 -8.97875 15.43964844 -9 14.73242188 C-9.03850868 9.64446271 -8.10429624 6.12543599 -5.6875 1.625 C-2.6875 -0.375 -2.6875 -0.375 0 0 Z " fill="#16191A" transform="translate(583.6875,66.375)"/>
<path d="M0 0 C0.74362793 0.05236816 1.48725586 0.10473633 2.25341797 0.15869141 C3.05908203 0.21025391 3.86474609 0.26181641 4.69482422 0.31494141 C5.95746094 0.41162109 5.95746094 0.41162109 7.24560547 0.51025391 C8.09509766 0.56697266 8.94458984 0.62369141 9.81982422 0.68212891 C11.92073997 0.82376368 14.02077881 0.97829717 16.12060547 1.13525391 C16.09998047 2.26962891 16.07935547 3.40400391 16.05810547 4.57275391 C15.87310158 13.17493574 15.87310158 13.17493574 19.00341797 20.90478516 C21.1810773 22.96365003 21.1810773 22.96365003 23.50341797 24.59228516 C24.03708984 25.10146484 24.57076172 25.61064453 25.12060547 26.13525391 C24.92334002 29.10550789 24.15147231 30.09940854 22.18310547 32.38525391 C20.12060547 34.13525391 20.12060547 34.13525391 18.12060547 34.13525391 C16.88300724 37.84804859 16.7645165 41.44831736 16.55810547 45.32275391 C16.51492187 46.07234375 16.47173828 46.82193359 16.42724609 47.59423828 C16.32137861 49.44103765 16.22050787 51.28812225 16.12060547 53.13525391 C15.79060547 53.13525391 15.46060547 53.13525391 15.12060547 53.13525391 C15.12060547 47.85525391 15.12060547 42.57525391 15.12060547 37.13525391 C13.47060547 38.45525391 11.82060547 39.77525391 10.12060547 41.13525391 C9.46060547 41.13525391 8.80060547 41.13525391 8.12060547 41.13525391 C8.33716797 40.49458984 8.55373047 39.85392578 8.77685547 39.19384766 C11.49440674 30.75182496 12.17968038 24.20410323 8.12060547 16.13525391 C4.41999938 10.47550342 0.26329449 8.41032391 -5.87939453 6.13525391 C-4.88939453 5.80525391 -3.89939453 5.47525391 -2.87939453 5.13525391 C-3.20939453 4.14525391 -3.53939453 3.15525391 -3.87939453 2.13525391 C-1.87939453 0.13525391 -1.87939453 0.13525391 0 0 Z " fill="#202326" transform="translate(91.87939453125,51.86474609375)"/>
<path d="M0 0 C2.31444553 1.48373283 3.82685657 3.08008161 5.59765625 5.1796875 C6.17644531 5.85773437 6.75523438 6.53578125 7.3515625 7.234375 C7.90714844 7.91757812 8.46273437 8.60078125 9.03515625 9.3046875 C9.62167969 9.96726562 10.20820312 10.62984375 10.8125 11.3125 C12.03515625 13.3046875 12.03515625 13.3046875 11.88671875 15.2890625 C10.0799835 19.5655551 7.97189234 22.74123144 4.03515625 25.3046875 C-1.05878897 25.99574687 -5.86022455 25.77770241 -10.96484375 25.3046875 C-11.13931309 21.88866735 -11.24573998 18.47379113 -11.33984375 15.0546875 C-11.39011719 14.08660156 -11.44039062 13.11851563 -11.4921875 12.12109375 C-11.54859837 9.39456834 -11.52723594 6.9746302 -10.96484375 4.3046875 C-7.98329361 1.56133282 -4.18862623 -1.48225739 0 0 Z " fill="#181C1D" transform="translate(66.96484375,25.6953125)"/>
<path d="M0 0 C7.26 0 14.52 0 22 0 C23.0845666 13.37632135 23.0845666 13.37632135 19.99609375 18 C17.75971287 20.18388367 15.52080016 22.15441417 13 24 C9.34584258 22.43636055 6.7880312 20.17824958 3.875 17.5 C3.00617187 16.7059375 2.13734375 15.911875 1.2421875 15.09375 C-2.97887011 11.15213523 -2.97887011 11.15213523 -3.3125 8.75 C-3 6 -3 6 0 0 Z " fill="#0F1517" transform="translate(31,53)"/>
<path d="M0 0 C7.26 0 14.52 0 22 0 C22.99 2.97 23.98 5.94 25 9 C21.81408847 15.37182307 16.64400975 19.72423504 11 24 C6.35328509 21.810287 2.59942893 19.55437136 0 15 C-0.61912891 9.76701474 -0.33150154 5.35138205 0 0 Z " fill="#161B1D" transform="translate(110,53)"/>
<path d="M0 0 C4.10065413 0.82013083 6.07015713 1.60631449 9.046875 4.609375 C9.78709116 8.21697097 9.61210075 11.69630999 9.421875 15.359375 C9.39480469 16.34292969 9.36773437 17.32648437 9.33984375 18.33984375 C9.26920087 20.76524923 9.17063619 23.18619445 9.046875 25.609375 C-4.20583225 26.83742509 -4.20583225 26.83742509 -8.4375 23.86328125 C-10.11434991 21.85321117 -11.53019844 19.8017016 -12.953125 17.609375 C-13.613125 17.279375 -14.273125 16.949375 -14.953125 16.609375 C-13.27436303 12.76687537 -10.8118143 9.60470871 -8.203125 6.359375 C-7.78546875 5.80507813 -7.3678125 5.25078125 -6.9375 4.6796875 C-4.76690092 1.99290936 -3.42066904 0.70585234 0 0 Z " fill="#1D2122" transform="translate(98.953125,25.390625)"/>
<path d="M0 0 C3.63 0 7.26 0 11 0 C11 13.2 11 26.4 11 40 C7.37 40 3.74 40 0 40 C0 26.8 0 13.6 0 0 Z " fill="#191C1D" transform="translate(226,63)"/>
<path d="M0 0 C4.20953787 1.7296616 7.35143576 4.68206745 10.75 7.625 C11.35199219 8.140625 11.95398438 8.65625 12.57421875 9.1875 C14.05260866 10.45469135 15.52673171 11.72685775 17 13 C16.125 17.75 16.125 17.75 15 20 C14.34 20 13.68 20 13 20 C13 20.99 13 21.98 13 23 C5.74 23 -1.52 23 -9 23 C-9.61433447 9.85324232 -9.61433447 9.85324232 -6.75 5.875 C-5.8425 5.25625 -4.935 4.6375 -4 4 C-3.236875 3.236875 -2.47375 2.47375 -1.6875 1.6875 C-1.130625 1.130625 -0.57375 0.57375 0 0 Z " fill="#131819" transform="translate(119,82)"/>
<path d="M0 0 C11.99685688 -1.06151964 11.99685688 -1.06151964 16.67578125 1.41796875 C19.3404019 3.70262521 21.32178424 5.77766437 23.02734375 8.8515625 C22.98055869 12.52753167 20.18832504 14.63827149 17.75 17.125 C17.24597656 17.66253906 16.74195312 18.20007813 16.22265625 18.75390625 C13.93182819 21.16498775 11.77650416 23.14899722 9 25 C6.05106471 24.61949222 3.55581989 23.49823925 1 22 C-0.20029908 19.59940183 -0.11459743 18.10639351 -0.09765625 15.4296875 C-0.09443359 14.53378906 -0.09121094 13.63789062 -0.08789062 12.71484375 C-0.07951172 11.77769531 -0.07113281 10.84054688 -0.0625 9.875 C-0.05798828 8.93011719 -0.05347656 7.98523438 -0.04882812 7.01171875 C-0.03702357 4.67441613 -0.02055759 2.33723939 0 0 Z " fill="#171B1C" transform="translate(56,108)"/>
<path d="M0 0 C0 7.26 0 14.52 0 22 C-4.36520971 24.18260485 -6.21690418 24.69572303 -11 24 C-13.53718207 22.15531075 -15.443495 19.90681657 -17.4375 17.5 C-17.97826172 16.87996094 -18.51902344 16.25992188 -19.07617188 15.62109375 C-20.40185561 14.09597087 -21.70341685 12.54993848 -23 11 C-18.17985344 0.26745691 -11.00908447 -0.80274574 0 0 Z " fill="#121717" transform="translate(107,108)"/>
<path d="M0 0 C0.66 0 1.32 0 2 0 C2 5.28 2 10.56 2 16 C-0.145 16 -2.29 16 -4.5 16 C-10.03500168 16.35294039 -12.89403584 17.01373763 -16.75 21.0625 C-17.34296875 21.79597656 -17.9359375 22.52945313 -18.546875 23.28515625 C-19.02640625 23.85105469 -19.5059375 24.41695312 -20 25 C-20.66 25 -21.32 25 -22 25 C-22 25.66 -22 26.32 -22 27 C-25.10442031 25.6095501 -27.3656443 23.98428402 -29.8125 21.625 C-30.43769531 21.03976563 -31.06289062 20.45453125 -31.70703125 19.8515625 C-33 18 -33 18 -32.69921875 15.7734375 C-32.46847656 15.18820313 -32.23773438 14.60296875 -32 14 C-28.89804352 13.06869667 -26.2869308 12.97595081 -23.0625 13.125 C-16.0574634 13.16596513 -12.75001206 9.85972677 -7.7109375 5.42578125 C-5.6151774 3.6793145 -3.37789588 2.32882417 -1 1 C-0.67 0.67 -0.34 0.34 0 0 Z " fill="#111415" transform="translate(105,89)"/>
<path d="M0 0 C3.23045627 9.21064614 4.50606743 17.65701584 1 27 C-0.16290363 29.32085874 -1.32413845 30.96865266 -3 33 C-3.99 33 -4.98 33 -6 33 C-6 32.01 -6 31.02 -6 30 C-6.66 30 -7.32 30 -8 30 C-8.33 30.66 -8.66 31.32 -9 32 C-9.99 31.01 -10.98 30.02 -12 29 C-11.67644531 28.19691406 -11.35289062 27.39382812 -11.01953125 26.56640625 C-9.59019478 21.56646678 -9.67614397 16.71972749 -9.69726562 11.54492188 C-9.58624325 7.27235098 -9.35212479 5.46969968 -6.70703125 1.94140625 C-4 0 -4 0 0 0 Z " fill="#191C1D" transform="translate(282,68)"/>
<path d="M0 0 C0.33 0 0.66 0 1 0 C1.02578125 0.9178125 1.0515625 1.835625 1.078125 2.78125 C1.53319439 14.48916842 1.53319439 14.48916842 7.9140625 23.77734375 C14.52638611 28.74242773 21.05843745 29.63587324 29.125 28.5625 C30.07375 28.376875 31.0225 28.19125 32 28 C31.67 28.66 31.34 29.32 31 30 C26.65229784 31.44923405 22.48066667 30.91454032 17.93359375 30.7421875 C16.96550781 30.82726562 15.99742188 30.91234375 15 31 C14.01 32.485 14.01 32.485 13 34 C10.19359893 34.2224948 7.66883108 34.28088481 4.875 34.1875 C2.27625 34.125625 -0.3225 34.06375 -3 34 C-3.33 28.39 -3.66 22.78 -4 17 C-4.66 16.67 -5.32 16.34 -6 16 C-5.835 15.4225 -5.67 14.845 -5.5 14.25 C-4.85537969 11.73335631 -4.85537969 11.73335631 -5 8 C-3.49704894 5.19904576 -1.76362312 2.64543468 0 0 Z " fill="#424443" transform="translate(59,72)"/>
<path d="M0 0 C-0.33 1.32 -0.66 2.64 -1 4 C-0.40316406 4.25652344 0.19367188 4.51304687 0.80859375 4.77734375 C3.19895218 6.11100184 4.38557981 7.42051394 6.0625 9.5625 C8.12532214 12.19437653 8.71297618 12.90432539 12 14 C12.309375 13.195625 12.309375 13.195625 12.625 12.375 C14.53250426 9.08021991 17.04819384 6.40636372 20 4 C20.66 4 21.32 4 22 4 C22.33 3.01 22.66 2.02 23 1 C25.31 1.33 27.62 1.66 30 2 C29.67 2.66 29.34 3.32 29 4 C28.34 4 27.68 4 27 4 C26.92523438 4.55300781 26.85046875 5.10601562 26.7734375 5.67578125 C25.71313594 8.86204098 23.88089078 10.716241 21.625 13.1875 C20.83351563 14.06792969 20.04203125 14.94835937 19.2265625 15.85546875 C17 18 17 18 14 19 C14 19.66 14 20.32 14 21 C12.35 21.66 10.7 22.32 9 23 C6.7165585 20.8044005 4.45073415 18.59140861 2.1875 16.375 C1.22360352 15.44880859 1.22360352 15.44880859 0.24023438 14.50390625 C-3.39352406 10.9266311 -6.01641582 7.79304727 -8 3 C-3.375 0 -3.375 0 0 0 Z " fill="#C8B7AC" transform="translate(71,130)"/>
<path d="M0 0 C1.71230248 1.61974559 3.37163262 3.2958946 5 5 C6.9645991 6.71439073 8.97727146 8.35359305 11 10 C10.1875 11.9375 10.1875 11.9375 9 14 C8.01 14.33 7.02 14.66 6 15 C6 15.66 6 16.32 6 17 C2.05803571 20.94196429 2.05803571 20.94196429 0 22 C-4.44456896 21.81240456 -6.64704852 19.9139693 -9.8125 16.9375 C-10.60269531 16.20402344 -11.39289062 15.47054687 -12.20703125 14.71484375 C-12.79871094 14.14894531 -13.39039062 13.58304688 -14 13 C-12.4700928 9.39438086 -10.31303068 7.0140801 -7.5625 4.25 C-6.78003906 3.45078125 -5.99757813 2.6515625 -5.19140625 1.828125 C-3 0 -3 0 0 0 Z " fill="#141718" transform="translate(30,68)"/>
<path d="M0 0 C3.37198902 1.46575198 5.64987004 3.35181521 8.25 5.9375 C8.95640625 6.62714844 9.6628125 7.31679687 10.390625 8.02734375 C12 10 12 10 12 13 C11.34 13 10.68 13 10 13 C9.690625 13.8353125 9.690625 13.8353125 9.375 14.6875 C7.41860796 17.9777957 5.14258996 19.84332061 2 22 C-2.29270061 21.77879804 -4.39451295 20.17352699 -7.375 17.1875 C-8.08398438 16.50042969 -8.79296875 15.81335938 -9.5234375 15.10546875 C-11 13 -11 13 -10.97265625 10.96484375 C-9.73091702 8.45643076 -8.22162234 7.14758868 -6.0625 5.375 C-5.35222656 4.78460938 -4.64195312 4.19421875 -3.91015625 3.5859375 C-3.27980469 3.06257813 -2.64945313 2.53921875 -2 2 C-1.34 1.34 -0.68 0.68 0 0 Z " fill="#171C1F" transform="translate(134,68)"/>
<path d="M0 0 C5.61 0 11.22 0 17 0 C17 5.61 17 11.22 17 17 C11.39 17 5.78 17 0 17 C0 11.39 0 5.78 0 0 Z " fill="#1A1E1D" transform="translate(110,108)"/>
<path d="M0 0 C5.94 0 11.88 0 18 0 C18 5.28 18 10.56 18 16 C12.06 16 6.12 16 0 16 C0 10.72 0 5.44 0 0 Z " fill="#1D2020" transform="translate(36,35)"/>
<path d="M0 0 C3.66786393 1.50349377 5.68910393 3.63728792 8.25 6.625 C8.95640625 7.44226563 9.6628125 8.25953125 10.390625 9.1015625 C10.92171875 9.72804688 11.4528125 10.35453125 12 11 C10.48446596 14.47775179 8.4226544 16.9557984 5.875 19.75 C5.15054688 20.54921875 4.42609375 21.3484375 3.6796875 22.171875 C3.12539062 22.77515625 2.57109375 23.3784375 2 24 C-1.88014936 22.47940093 -3.73906562 20.13921469 -6.25 16.875 C-6.95640625 15.96492188 -7.6628125 15.05484375 -8.390625 14.1171875 C-8.92171875 13.41851562 -9.4528125 12.71984375 -10 12 C-8.52278578 8.54798361 -6.56205999 6.35038064 -3.875 3.75 C-3.15054688 3.04359375 -2.42609375 2.3371875 -1.6796875 1.609375 C-1.12539062 1.07828125 -0.57109375 0.5471875 0 0 Z " fill="#15191B" transform="translate(81,14)"/>
<path d="M0 0 C3.98186504 0.53031611 5.68498817 2.37756448 8.3125 5.3125 C9.03050781 6.09238281 9.74851562 6.87226562 10.48828125 7.67578125 C12 10 12 10 11.94921875 12.06640625 C10.79392848 14.41977531 9.41728545 15.84129591 7.5 17.625 C4.88193354 20.03610916 4.88193354 20.03610916 3 23 C-0.8224465 22.46115292 -2.23524018 20.94772136 -4.625 18 C-6.94555299 15.04427685 -6.94555299 15.04427685 -10 13 C-8.48446596 9.52224821 -6.4226544 7.0442016 -3.875 4.25 C-3.15054688 3.45078125 -2.42609375 2.6515625 -1.6796875 1.828125 C-0.84824219 0.92320313 -0.84824219 0.92320313 0 0 Z " fill="#161A1B" transform="translate(80,121)"/>
<path d="M0 0 C5.61 0 11.22 0 17 0 C17 5.28 17 10.56 17 16 C11.39 16 5.78 16 0 16 C0 10.72 0 5.44 0 0 Z " fill="#0B1315" transform="translate(36,109)"/>
<path d="M0 0 C5.28 0 10.56 0 16 0 C16 5.28 16 10.56 16 16 C10.72 16 5.44 16 0 16 C0 10.72 0 5.44 0 0 Z " fill="#1F2121" transform="translate(110,35)"/>
<path d="M0 0 C3.6780631 1.73085322 4.52219145 4.35222883 6.125 8 C6.455 11.63 6.785 15.26 7.125 19 C-1.455 19 -10.035 19 -18.875 19 C-18.215 18.67 -17.555 18.34 -16.875 18 C-16.545 16.35 -16.215 14.7 -15.875 13 C-11.585 13 -7.295 13 -2.875 13 C-3.535 11.35 -4.195 9.7 -4.875 8 C-4.625 4.25 -4.625 4.25 -3.875 1 C-1.875 0 -1.875 0 0 0 Z " fill="#111516" transform="translate(365.875,65)"/>
<path d="M0 0 C0.91644287 0.00523682 1.83288574 0.01047363 2.77709961 0.01586914 C3.76645508 0.0190918 4.75581055 0.02231445 5.77514648 0.02563477 C6.81606445 0.03401367 7.85698242 0.04239258 8.92944336 0.05102539 C10.49662109 0.05779297 10.49662109 0.05779297 12.09545898 0.06469727 C14.68600996 0.07652627 17.27644895 0.0930085 19.86694336 0.11352539 C20.0628478 3.59227296 20.24725928 7.07153443 20.42944336 10.55102539 C20.48551758 11.54424805 20.5415918 12.5374707 20.59936523 13.56079102 C20.64770508 14.5050293 20.69604492 15.44926758 20.74584961 16.42211914 C20.79298096 17.29666748 20.8401123 18.17121582 20.88867188 19.07226562 C20.86694336 21.11352539 20.86694336 21.11352539 19.86694336 22.11352539 C17.55694336 22.11352539 15.24694336 22.11352539 12.86694336 22.11352539 C12.86694336 16.83352539 12.86694336 11.55352539 12.86694336 6.11352539 C7.58694336 6.11352539 2.30694336 6.11352539 -3.13305664 6.11352539 C-3.13305664 0.16674732 -3.13305664 0.16674732 0 0 Z " fill="#BBA799" transform="translate(113.133056640625,28.886474609375)"/>
<path d="M0 0 C2.31 0 4.62 0 7 0 C7 0.66 7 1.32 7 2 C8.4540625 1.7525 8.4540625 1.7525 9.9375 1.5 C14.29487763 0.86603727 18.60630704 0.9103328 23 1 C23.33 1.99 23.66 2.98 24 4 C23.67 4.66 23.34 5.32 23 6 C17.39 6 11.78 6 6 6 C6 11.28 6 16.56 6 22 C4.02 21.67 2.04 21.34 0 21 C0 14.07 0 7.14 0 0 Z " fill="#B7A89D" transform="translate(30,29)"/>
<path d="M0 0 C1.27617188 0.02320312 2.55234375 0.04640625 3.8671875 0.0703125 C5.78917969 0.09738281 5.78917969 0.09738281 7.75 0.125 C9.23113281 0.15980469 9.23113281 0.15980469 10.7421875 0.1953125 C10.7421875 0.5253125 10.7421875 0.8553125 10.7421875 1.1953125 C4.3071875 1.6903125 4.3071875 1.6903125 -2.2578125 2.1953125 C-2.5878125 3.1853125 -2.9178125 4.1753125 -3.2578125 5.1953125 C-5.10546875 7.01953125 -5.10546875 7.01953125 -7.3203125 8.8828125 C-8.05378906 9.50542969 -8.78726563 10.12804687 -9.54296875 10.76953125 C-10.39181641 11.47529297 -10.39181641 11.47529297 -11.2578125 12.1953125 C-9.74227846 15.67306429 -7.6804669 18.1511109 -5.1328125 20.9453125 C-4.40835938 21.74453125 -3.68390625 22.54375 -2.9375 23.3671875 C-2.10605469 24.27210938 -2.10605469 24.27210938 -1.2578125 25.1953125 C-2.2478125 26.5153125 -3.2378125 27.8353125 -4.2578125 29.1953125 C-4.6290625 28.5146875 -5.0003125 27.8340625 -5.3828125 27.1328125 C-7.69229554 23.51462241 -10.40854376 20.39497675 -13.2578125 17.1953125 C-17.10884551 17.73207153 -18.57578837 19.31132173 -21.0078125 22.2578125 C-21.62140625 22.99128906 -22.235 23.72476563 -22.8671875 24.48046875 C-23.55554688 25.32931641 -23.55554688 25.32931641 -24.2578125 26.1953125 C-25.2478125 25.5353125 -26.2378125 24.8753125 -27.2578125 24.1953125 C-24.2878125 20.8953125 -21.3178125 17.5953125 -18.2578125 14.1953125 C-20.37455561 8.90345473 -21.94042119 7.61324729 -26.2578125 4.1953125 C-26.9178125 3.2053125 -27.5778125 2.2153125 -28.2578125 1.1953125 C-23.87803615 1.68450218 -22.03268343 2.98655481 -19.0703125 6.1953125 C-16.4621582 9.09382372 -16.4621582 9.09382372 -13.2578125 11.1953125 C-13.2578125 10.5353125 -13.2578125 9.8753125 -13.2578125 9.1953125 C-11.578125 7.5390625 -11.578125 7.5390625 -9.3828125 5.6953125 C-2.85192648 0.17097881 -2.85192648 0.17097881 0 0 Z " fill="#AAA7A2" transform="translate(96.2578125,104.8046875)"/>
<path d="M0 0 C0.99 0.66 1.98 1.32 3 2 C3.22137393 4.62697064 3.28162025 7.00893964 3.1875 9.625 C3.16719727 10.68460938 3.16719727 10.68460938 3.14648438 11.765625 C3.1111104 13.51074128 3.05730221 15.25546608 3 17 C3.83144531 16.97679688 4.66289063 16.95359375 5.51953125 16.9296875 C6.60621094 16.91164063 7.69289063 16.89359375 8.8125 16.875 C9.89144531 16.85179688 10.97039063 16.82859375 12.08203125 16.8046875 C15 17 15 17 18 19 C13.05 19 8.1 19 3 19 C3.10699219 20.49273437 3.21398437 21.98546875 3.32421875 23.5234375 C3.44612315 25.47390784 3.56717274 27.42443173 3.6875 29.375 C3.76033203 30.35984375 3.83316406 31.3446875 3.90820312 32.359375 C3.96298828 33.30039063 4.01777344 34.24140625 4.07421875 35.2109375 C4.13182373 36.08024902 4.18942871 36.94956055 4.2487793 37.84521484 C4.16668213 38.55629395 4.08458496 39.26737305 4 40 C3.01 40.66 2.02 41.32 1 42 C-0.10039343 36.89743492 0.05826685 32.27679009 0.4375 27.125 C0.7159375 23.103125 0.7159375 23.103125 1 19 C-6.59 19.33 -14.18 19.66 -22 20 C-22.33 27.26 -22.66 34.52 -23 42 C-23.33 42 -23.66 42 -24 42 C-24.05811773 38.25006521 -24.09363593 34.50024648 -24.125 30.75 C-24.14175781 29.68652344 -24.15851562 28.62304688 -24.17578125 27.52734375 C-24.18222656 26.50253906 -24.18867188 25.47773437 -24.1953125 24.421875 C-24.20578613 23.47924805 -24.21625977 22.53662109 -24.22705078 21.56542969 C-23.99119213 18.90048059 -23.35661659 17.28136908 -22 15 C-22 15.66 -22 16.32 -22 17 C-14.41 17 -6.82 17 1 17 C0.67 11.39 0.34 5.78 0 0 Z " fill="#BFBAB2" transform="translate(53,89)"/>
<path d="M0 0 C0.66 0 1.32 0 2 0 C2.165 0.99 2.33 1.98 2.5 3 C3.74625938 7.61959304 6.88384078 10.06649006 10.41796875 13.10546875 C12 15 12 15 11.859375 17.09765625 C10.69840243 19.66762735 9.1372434 21.18658136 7 23 C6.34 23 5.68 23 5 23 C5 23.66 5 24.32 5 25 C3.02 25 1.04 25 -1 25 C-1 3.5 -1 3.5 0 0 Z " fill="#0F1112" transform="translate(105,63)"/>
<path d="M0 0 C1.49249268 0.01571045 1.49249268 0.01571045 3.01513672 0.03173828 C4.6296875 0.04140625 4.6296875 0.04140625 6.27685547 0.05126953 C7.40478516 0.06802734 8.53271484 0.08478516 9.69482422 0.10205078 C11.39832031 0.11558594 11.39832031 0.11558594 13.13623047 0.12939453 C15.94751759 0.15301879 18.75869683 0.18889068 21.56982422 0.22705078 C21.56982422 7.15705078 21.56982422 14.08705078 21.56982422 21.22705078 C21.23982422 21.22705078 20.90982422 21.22705078 20.56982422 21.22705078 C20.56982422 14.62705078 20.56982422 8.02705078 20.56982422 1.22705078 C9.67982422 1.72205078 9.67982422 1.72205078 -1.43017578 2.22705078 C-1.76017578 9.15705078 -2.09017578 16.08705078 -2.43017578 23.22705078 C4.82982422 23.22705078 12.08982422 23.22705078 19.56982422 23.22705078 C19.56982422 23.88705078 19.56982422 24.54705078 19.56982422 25.22705078 C12.30982422 25.22705078 5.04982422 25.22705078 -2.43017578 25.22705078 C-2.38892578 27.16580078 -2.34767578 29.10455078 -2.30517578 31.10205078 C-2.23486328 34.40673828 -2.23486328 34.40673828 -2.43017578 37.22705078 C-3.09017578 37.88705078 -3.75017578 38.54705078 -4.43017578 39.22705078 C-4.47953403 33.99431747 -4.51587527 28.76171902 -4.54003906 23.52880859 C-4.5501101 21.74786011 -4.56376763 19.96692821 -4.58105469 18.18603516 C-4.60525491 15.62935295 -4.61664762 13.07288893 -4.62548828 10.51611328 C-4.63581085 9.71710602 -4.64613342 8.91809875 -4.6567688 8.09487915 C-4.65716805 6.13747859 -4.55258647 4.18062002 -4.43017578 2.22705078 C-2.43017578 0.22705078 -2.43017578 0.22705078 0 0 Z " fill="#CDC6BF" transform="translate(112.43017578125,27.77294921875)"/>
<path d="M0 0 C3.15835107 1.39750048 5.32272825 3.05198234 7.75 5.5 C8.67039063 6.41265625 8.67039063 6.41265625 9.609375 7.34375 C11 9 11 9 11 11 C11.66 11 12.32 11 13 11 C14.6875 12.75 14.6875 12.75 16 15 C15.58858694 21.01691601 9.14361716 25.22623672 5 29 C-0.00507614 33 -0.00507614 33 -3 33 C-4.625 31 -4.625 31 -6 29 C-5.67 28.34 -5.34 27.68 -5 27 C-3.35 27.99 -1.7 28.98 0 30 C0.26683594 29.40574219 0.53367188 28.81148437 0.80859375 28.19921875 C2.01375419 25.97461112 3.27964757 24.58659149 5.0625 22.8125 C8.06919571 19.38471914 9.02249739 16.54857547 9.23046875 12.01171875 C9.13155533 9.81120003 9.13155533 9.81120003 7.4375 7.625 C4.72091859 5.81394573 1.97124494 4.35056588 -1 3 C-0.67 2.01 -0.34 1.02 0 0 Z " fill="#CCBAB1" transform="translate(139,64)"/>
<path d="M0 0 C4.25177923 0.47241991 6.29969203 2.84964071 9 6 C9 6.99 9 7.98 9 9 C8.34 9 7.68 9 7 9 C7.34786708 10.97536745 7.34786708 10.97536745 8 13 C8.66 13.33 9.32 13.66 10 14 C9.67 14.99 9.34 15.98 9 17 C4.66590534 13.81316569 1.3810038 10.13621084 -2 6 C-4.99220268 7.36370299 -7.29026529 8.94908083 -9.75 11.125 C-10.36359375 11.66382813 -10.9771875 12.20265625 -11.609375 12.7578125 C-12.06828125 13.16773438 -12.5271875 13.57765625 -13 14 C-13 7.12 -13 7.12 -10.4375 4.25 C-6.86000943 2.41538945 -3.99371657 2.80031417 0 3 C0 2.01 0 1.02 0 0 Z " fill="#C1B0A5" transform="translate(85,9)"/>
<path d="M0 0 C0.33 0 0.66 0 1 0 C3.18116592 14.9955157 3.18116592 14.9955157 0.28515625 19.91015625 C-1.71490652 21.84694814 -3.66310755 23.49150268 -6 25 C-4.56762624 28.95515817 -3.4429207 30.58995551 0 33 C0 33.66 0 34.32 0 35 C1.485 35.495 1.485 35.495 3 36 C2.67 36.66 2.34 37.32 2 38 C-2.28477792 35.69281189 -5.72291137 33.67033927 -9 30 C-13.04161955 31.34484714 -15.38678154 33.0505162 -18.3125 36.125 C-19.00988281 36.84945312 -19.70726562 37.57390625 -20.42578125 38.3203125 C-21.20501953 39.15175781 -21.20501953 39.15175781 -22 40 C-22.61328125 38.140625 -22.61328125 38.140625 -23 36 C-21.1875 33.75 -21.1875 33.75 -19 32 C-18.34 32 -17.68 32 -17 32 C-17 31.34 -17 30.68 -17 30 C-15.03852126 28.61061923 -13.03833424 27.2739589 -11 26 C-10.34 26.33 -9.68 26.66 -9 27 C-9 26.34 -9 25.68 -9 25 C-9.66 24.67 -10.32 24.34 -11 24 C-10.44570313 23.51789063 -9.89140625 23.03578125 -9.3203125 22.5390625 C-8.23363281 21.59160156 -8.23363281 21.59160156 -7.125 20.625 C-6.40570313 19.99851562 -5.68640625 19.37203125 -4.9453125 18.7265625 C-1.53210802 15.86091278 -1.53210802 15.86091278 -0.5859375 11.5234375 C-0.5061894 10.14113706 -0.43625064 8.75824351 -0.375 7.375 C-0.33632813 6.66859375 -0.29765625 5.9621875 -0.2578125 5.234375 C-0.16352276 3.49001476 -0.08067109 1.74504309 0 0 Z " fill="#BAB3A9" transform="translate(53,53)"/>
<path d="M0 0 C0 5.28 0 10.56 0 16 C-4.95 16.33 -9.9 16.66 -15 17 C-15.33 15.68 -15.66 14.36 -16 13 C-15.4225 12.938125 -14.845 12.87625 -14.25 12.8125 C-11.06646522 11.66289022 -9.89414079 9.74323838 -8 7 C-7.67 6.01 -7.34 5.02 -7 4 C-2.54285714 0 -2.54285714 0 0 0 Z " fill="#0C1012" transform="translate(107,89)"/>
<path d="M0 0 C3.3 0.99 6.6 1.98 10 3 C7.62581575 8.275965 5.93811718 11.70792188 1 15 C-1.4375 14.25 -1.4375 14.25 -4 13 C-4.8125 10.875 -4.8125 10.875 -5 9 C-6.32 8.67 -7.64 8.34 -9 8 C-7.88625 7.4121875 -7.88625 7.4121875 -6.75 6.8125 C-3.80216929 4.86961158 -2.06901389 2.83531533 0 0 Z " fill="#1F2223" transform="translate(209,86)"/>
<path d="M0 0 C3.84788041 1.56765498 6.41775169 3.75374498 9 7 C8.67 8.98 8.34 10.96 8 13 C3.05 12.67 -1.9 12.34 -7 12 C-6 5 -6 5 -4.58984375 3.22265625 C-3.05989583 2.1484375 -1.52994792 1.07421875 0 0 Z " fill="#101213" transform="translate(81,44)"/>
<path d="M0 0 C2.29633824 3.44450737 2.54016485 5.93812283 3 10 C4.65 10.33 6.3 10.66 8 11 C8 11.66 8 12.32 8 13 C8.66 13 9.32 13 10 13 C10 14.32 10 15.64 10 17 C10.66 17.33 11.32 17.66 12 18 C12 18.66 12 19.32 12 20 C7.71 20 3.42 20 -1 20 C-1.02689449 17.04160645 -1.04678741 14.08345573 -1.0625 11.125 C-1.07087891 10.28324219 -1.07925781 9.44148438 -1.08789062 8.57421875 C-1.09111328 7.76855469 -1.09433594 6.96289062 -1.09765625 6.1328125 C-1.10289307 5.38918457 -1.10812988 4.64555664 -1.11352539 3.87939453 C-1 2 -1 2 0 0 Z " fill="#0D1011" transform="translate(58,85)"/>
<path d="M0 0 C0.66 0 1.32 0 2 0 C2 5.28 2 10.56 2 16 C9.26 16 16.52 16 24 16 C23.67 16.66 23.34 17.32 23 18 C15.74 18 8.48 18 1 18 C1 23.28 1 28.56 1 34 C0.67 34 0.34 34 0 34 C0 28.72 0 23.44 0 18 C-4.95 18 -9.9 18 -15 18 C-14.67 17.34 -14.34 16.68 -14 16 C-9.68026501 15.39190981 -5.35840246 15.25388752 -1 15 C-0.67 10.05 -0.34 5.1 0 0 Z " fill="#C8C2B9" transform="translate(108,90)"/>
<path d="M0 0 C0.804375 1.051875 0.804375 1.051875 1.625 2.125 C3.43620867 4.31751576 5.21489986 6.22473754 7.25 8.1875 C10 11 10 11 10 13 C10.99 13 11.98 13 13 13 C13 13.99 13 14.98 13 16 C13.8353125 16.309375 13.8353125 16.309375 14.6875 16.625 C17.92501302 18.55000774 19.68231141 21.03850902 22 24 C17.62140745 23.49477778 15.18348776 20.82172778 12 18 C7.70281759 19.90985885 4.3108493 22.6891507 1 26 C0.34 25.34 -0.32 24.68 -1 24 C4 19 4 19 5.875 17.4375 C7.22648983 16.05492599 7.22648983 16.05492599 6.796875 14.125 C5.80874679 11.48999143 4.49411279 10.39034032 2.375 8.5625 C0.45703125 6.75 0.45703125 6.75 -1 5 C-0.9375 2.0625 -0.9375 2.0625 0 0 Z " fill="#B9B4AA" transform="translate(109,65)"/>
<path d="M0 0 C1.5778125 0.1546875 1.5778125 0.1546875 3.1875 0.3125 C3.1875 3.2825 3.1875 6.2525 3.1875 9.3125 C0.20898438 9.60546875 0.20898438 9.60546875 -2.76953125 9.8984375 C-5.11238142 10.23915391 -5.11238142 10.23915391 -7.8125 12.3125 C-9.3125 11.3125 -9.3125 11.3125 -10.8125 9.3125 C-11.08595479 6.59403765 -10.94741285 4.05572801 -10.8125 1.3125 C-10.1525 2.6325 -9.4925 3.9525 -8.8125 5.3125 C-8.131875 4.4875 -7.45125 3.6625 -6.75 2.8125 C-3.8125 0.3125 -3.8125 0.3125 0 0 Z " fill="#2B2D2E" transform="translate(400.8125,61.6875)"/>
<path d="M0 0 C1.39456452 0.00667256 2.78911118 0.01863093 4.18359375 0.03515625 C4.89451172 0.03966797 5.60542969 0.04417969 6.33789062 0.04882812 C8.09899388 0.06064761 9.86005411 0.07858362 11.62109375 0.09765625 C11.29109375 1.41765625 10.96109375 2.73765625 10.62109375 4.09765625 C9.96109375 4.09765625 9.30109375 4.09765625 8.62109375 4.09765625 C8.29109375 5.08765625 7.96109375 6.07765625 7.62109375 7.09765625 C4.62109375 8.09765625 4.62109375 8.09765625 2.62109375 8.09765625 C2.62109375 9.08765625 2.62109375 10.07765625 2.62109375 11.09765625 C-3.60194098 7.56566356 -3.60194098 7.56566356 -5.37890625 5.09765625 C-4.88151533 0.86983347 -4.33999895 0.1254335 0 0 Z " fill="#0B0E10" transform="translate(77.37890625,101.90234375)"/>
<path d="M0 0 C0.99 0.495 0.99 0.495 2 1 C2.99 1.33 3.98 1.66 5 2 C6.25433458 5.76300374 6.10695422 9.27210909 6.0625 13.1875 C6.05798828 13.93708984 6.05347656 14.68667969 6.04882812 15.45898438 C6.03706354 17.30602383 6.01912865 19.15302213 6 21 C4.02 20.67 2.04 20.34 0 20 C0 13.4 0 6.8 0 0 Z " fill="#B7A599" transform="translate(30,30)"/>
<path d="M0 0 C3.93768134 -0.05381797 7.87463132 -0.0935868 11.8125 -0.125 C12.93205078 -0.14175781 14.05160156 -0.15851562 15.20507812 -0.17578125 C16.27822266 -0.18222656 17.35136719 -0.18867188 18.45703125 -0.1953125 C19.9416687 -0.21102295 19.9416687 -0.21102295 21.45629883 -0.22705078 C24 0 24 0 27 2 C27.34057617 4.15478516 27.34057617 4.15478516 27.29296875 6.7890625 C27.28330078 7.73007812 27.27363281 8.67109375 27.26367188 9.640625 C27.23853516 10.62546875 27.21339844 11.6103125 27.1875 12.625 C27.16719727 14.11386719 27.16719727 14.11386719 27.14648438 15.6328125 C27.11105743 18.08908072 27.06166196 20.54427285 27 23 C26.67 23 26.34 23 26 23 C25.92652344 21.30230469 25.92652344 21.30230469 25.8515625 19.5703125 C25.77653486 18.08851661 25.70098703 16.606747 25.625 15.125 C25.5940625 14.37863281 25.563125 13.63226563 25.53125 12.86328125 C25.44356169 8.46526812 25.44356169 8.46526812 23 5 C23.33 4.01 23.66 3.02 24 2 C16.08 2.495 16.08 2.495 8 3 C8 2.34 8 1.68 8 1 C5.69 1 3.38 1 1 1 C1 7.93 1 14.86 1 22 C0.67 22 0.34 22 0 22 C0 14.74 0 7.48 0 0 Z " fill="#C9BEB6" transform="translate(29,28)"/>
<path d="M0 0 C0.99 0.66 1.98 1.32 3 2 C3.14836237 11.05010441 -1.01237301 15.52852437 -7 22 C-7.763125 21.67 -8.52625 21.34 -9.3125 21 C-11.99069135 19.82563314 -11.99069135 19.82563314 -15 20 C-15.66 19.01 -16.32 18.02 -17 17 C-15.989375 17.12375 -14.97875 17.2475 -13.9375 17.375 C-8.78828213 16.8845983 -6.42140499 14.73068454 -3 11 C-2.67 10.34 -2.34 9.68 -2 9 C-1.34 9 -0.68 9 0 9 C-0.99 7.02 -1.98 5.04 -3 3 C-2.01 2.67 -1.02 2.34 0 2 C0 1.34 0 0.68 0 0 Z " fill="#A89D94" transform="translate(146,72)"/>
<path d="M0 0 C1.27617188 0.02320312 2.55234375 0.04640625 3.8671875 0.0703125 C5.78917969 0.09738281 5.78917969 0.09738281 7.75 0.125 C9.23113281 0.15980469 9.23113281 0.15980469 10.7421875 0.1953125 C10.7421875 0.5253125 10.7421875 0.8553125 10.7421875 1.1953125 C4.3071875 1.6903125 4.3071875 1.6903125 -2.2578125 2.1953125 C-2.5878125 3.1853125 -2.9178125 4.1753125 -3.2578125 5.1953125 C-5.03515625 6.9140625 -5.03515625 6.9140625 -7.1953125 8.6953125 C-9.76756442 10.82407271 -11.38042013 12.37922395 -13.2578125 15.1953125 C-14.2478125 15.1953125 -15.2378125 15.1953125 -16.2578125 15.1953125 C-16.6703125 14.4940625 -17.0828125 13.7928125 -17.5078125 13.0703125 C-19.48612389 9.82022951 -21.68970091 7.96993892 -24.63671875 5.625 C-26.2578125 4.1953125 -26.2578125 4.1953125 -28.2578125 1.1953125 C-23.87803615 1.68450218 -22.03268343 2.98655481 -19.0703125 6.1953125 C-16.4621582 9.09382372 -16.4621582 9.09382372 -13.2578125 11.1953125 C-13.2578125 10.5353125 -13.2578125 9.8753125 -13.2578125 9.1953125 C-11.578125 7.5390625 -11.578125 7.5390625 -9.3828125 5.6953125 C-2.85192648 0.17097881 -2.85192648 0.17097881 0 0 Z " fill="#C0BCB7" transform="translate(96.2578125,104.8046875)"/>
<path d="M0 0 C2.06298828 -0.34057617 2.06298828 -0.34057617 4.5703125 -0.29296875 C5.46621094 -0.28330078 6.36210938 -0.27363281 7.28515625 -0.26367188 C8.69087891 -0.2259668 8.69087891 -0.2259668 10.125 -0.1875 C11.06988281 -0.17396484 12.01476563 -0.16042969 12.98828125 -0.14648438 C15.32576253 -0.11106799 17.66295178 -0.0572598 20 0 C20 5.61 20 11.22 20 17 C19.67 17 19.34 17 19 17 C19 11.72 19 6.44 19 1 C13.39 1 7.78 1 2 1 C2 6.28 2 11.56 2 17 C0.68 17 -0.64 17 -2 17 C-2.05398987 14.72942623 -2.09278742 12.45848712 -2.125 10.1875 C-2.14820312 8.92292969 -2.17140625 7.65835938 -2.1953125 6.35546875 C-2 3 -2 3 0 0 Z " fill="#9A8E85" transform="translate(34,108)"/>
<path d="M0 0 C1 2 1 2 0 6 C3.96 6 7.92 6 12 6 C12 6.33 12 6.66 12 7 C11.13117188 7.09796875 10.26234375 7.1959375 9.3671875 7.296875 C0.46835339 8.44563102 0.46835339 8.44563102 -7 13 C-7.99 13.495 -7.99 13.495 -9 14 C-8.67 11.03 -8.34 8.06 -8 5 C-10.97 4.67 -13.94 4.34 -17 4 C-17 3.67 -17 3.34 -17 3 C-15.94039062 2.95101562 -14.88078125 2.90203125 -13.7890625 2.8515625 C-12.40101503 2.77653291 -11.01299549 2.70098515 -9.625 2.625 C-8.57699219 2.57859375 -8.57699219 2.57859375 -7.5078125 2.53125 C-3.29814173 2.40500502 -3.29814173 2.40500502 0 0 Z " fill="#2A2E2F" transform="translate(74,50)"/>
<path d="M0 0 C3.63 0 7.26 0 11 0 C11 2.64 11 5.28 11 8 C7.37 8 3.74 8 0 8 C0 5.36 0 2.72 0 0 Z " fill="#27292A" transform="translate(226,49)"/>
<path d="M0 0 C2.31 0.33 4.62 0.66 7 1 C6.67 1.66 6.34 2.32 6 3 C5.34 3 4.68 3 4 3 C3.92523438 3.55300781 3.85046875 4.10601562 3.7734375 4.67578125 C2.71313594 7.86204098 0.88089078 9.716241 -1.375 12.1875 C-2.16648437 13.06792969 -2.95796875 13.94835937 -3.7734375 14.85546875 C-6 17 -6 17 -9 18 C-9.33 17.01 -9.66 16.02 -10 15 C-9.195625 14.79375 -8.39125 14.5875 -7.5625 14.375 C-6.716875 13.92125 -5.87125 13.4675 -5 13 C-4.38333662 10.22111592 -4.38333662 10.22111592 -4 7 C-2.81915497 4.54482638 -1.43907472 2.32108826 0 0 Z " fill="#C2B7AF" transform="translate(94,131)"/>
<path d="M0 0 C1.32 0.66 2.64 1.32 4 2 C3.01 2.495 3.01 2.495 2 3 C2 3.66 2 4.32 2 5 C0.68 5 -0.64 5 -2 5 C-2.33 5.66 -2.66 6.32 -3 7 C-2.34 7.33 -1.68 7.66 -1 8 C-1.99 8.495 -1.99 8.495 -3 9 C-3 10.32 -3 11.64 -3 13 C-3 13.99 -3 14.98 -3 16 C-2.34 16.33 -1.68 16.66 -1 17 C-1.99 17.66 -2.98 18.32 -4 19 C-5.98 16.69 -7.96 14.38 -10 12 C-8.16614077 8.33228155 -6.74937171 6.53165004 -3.875 3.75 C-3.15054688 3.04359375 -2.42609375 2.3371875 -1.6796875 1.609375 C-1.12539062 1.07828125 -0.57109375 0.5471875 0 0 Z " fill="#242422" transform="translate(81,14)"/>
<path d="M0 0 C1.65 0 3.3 0 5 0 C4.05613723 6.86784355 2.86694585 12.19958122 -1 18 C-1.33 18 -1.66 18 -2 18 C-2.36504603 16.41913952 -2.71660506 14.83516093 -3.0625 13.25 C-3.25972656 12.36828125 -3.45695312 11.4865625 -3.66015625 10.578125 C-3.99825872 8.01320972 -3.81158635 6.42908361 -3 4 C-2.01 4 -1.02 4 0 4 C0 2.68 0 1.36 0 0 Z " fill="#232629" transform="translate(62,54)"/>
<path d="M0 0 C5.61 0 11.22 0 17 0 C17 5.28 17 10.56 17 16 C11.39 16 5.78 16 0 16 C0 15.67 0 15.34 0 15 C5.28 15 10.56 15 16 15 C16 10.71 16 6.42 16 2 C12.37 1.67 8.74 1.34 5 1 C5 1.66 5 2.32 5 3 C4.01 3.33 3.02 3.66 2 4 C1.67 7.3 1.34 10.6 1 14 C0.67 14 0.34 14 0 14 C0 9.38 0 4.76 0 0 Z " fill="#272521" transform="translate(36,109)"/>
<path d="M0 0 C0.99 0 1.98 0 3 0 C3 5.61 3 11.22 3 17 C7.62 17 12.24 17 17 17 C17 17.66 17 18.32 17 19 C15.04174127 19.02694851 13.08337774 19.04637218 11.125 19.0625 C10.03445312 19.07410156 8.94390625 19.08570312 7.8203125 19.09765625 C5 19 5 19 3 18 C2.67 19.32 2.34 20.64 2 22 C1.34 21.67 0.68 21.34 0 21 C0 14.07 0 7.14 0 0 Z " fill="#ACA49C" transform="translate(107,108)"/>
<path d="M0 0 C0.66 0 1.32 0 2 0 C2 0.66 2 1.32 2 2 C2.99 2.33 3.98 2.66 5 3 C4.34 3 3.68 3 3 3 C3.16242188 3.54398437 3.32484375 4.08796875 3.4921875 4.6484375 C4.07828249 7.36250815 4.13248081 9.84962013 4.125 12.625 C4.12757812 13.58664063 4.13015625 14.54828125 4.1328125 15.5390625 C4 18 4 18 3 20 C4.65 20 6.3 20 8 20 C7.67 25.61 7.34 31.22 7 37 C6.67 37 6.34 37 6 37 C6 31.72 6 26.44 6 21 C4.35 22.32 2.7 23.64 1 25 C0.34 25 -0.32 25 -1 25 C-0.7834375 24.35933594 -0.566875 23.71867187 -0.34375 23.05859375 C2.3648752 14.64429973 2.37587803 8.46406548 0 0 Z " fill="#5D5E5F" transform="translate(101,68)"/>
<path d="M0 0 C5 5 5 5 6.1875 6.625 C9.04339759 8.791543 12.23230856 8.57458525 15.6875 8.6875 C16.7403418 8.73874023 16.7403418 8.73874023 17.81445312 8.79101562 C19.54241387 8.87329947 21.27118072 8.9383324 23 9 C23 9.66 23 10.32 23 11 C9.01745346 12.06905392 9.01745346 12.06905392 4.19140625 9.51171875 C1.59762338 7.21300843 -0.4457897 5.10842059 -2 2 C-1.34 2 -0.68 2 0 2 C0 1.34 0 0.68 0 0 Z " fill="#BCB9B2" transform="translate(85,42)"/>
<path d="M0 0 C0.28875 0.61875 0.5775 1.2375 0.875 1.875 C1.93720042 4.13325765 1.93720042 4.13325765 4 6 C3.9765625 9.2578125 3.9765625 9.2578125 3.625 13.125 C3.45871094 15.04699219 3.45871094 15.04699219 3.2890625 17.0078125 C3.14597656 18.48894531 3.14597656 18.48894531 3 20 C2.67 20 2.34 20 2 20 C2 16.04 2 12.08 2 8 C0.02 8 -1.96 8 -4 8 C-4.33 7.34 -4.66 6.68 -5 6 C-3.68 5.67 -2.36 5.34 -1 5 C-7.93 4.67 -14.86 4.34 -22 4 C-22 3.67 -22 3.34 -22 3 C-14.74 3 -7.48 3 0 3 C0 2.01 0 1.02 0 0 Z " fill="#A7A09B" transform="translate(132,102)"/>
<path d="M0 0 C0.25136719 0.5775 0.50273437 1.155 0.76171875 1.75 C2.15763575 4.28642963 3.7461159 5.97707714 5.8125 8 C6.52019531 8.69351563 7.22789063 9.38703125 7.95703125 10.1015625 C10.10272295 12.14559728 10.10272295 12.14559728 13 14.375 C13.66 14.91125 14.32 15.4475 15 16 C15 16.66 15 17.32 15 18 C15.66 18 16.32 18 17 18 C17 18.66 17 19.32 17 20 C13.61769342 18.47326439 10.89740051 16.49747022 8 14.1875 C7.154375 13.52105469 6.30875 12.85460937 5.4375 12.16796875 C2.95732041 9.96203979 1.05816926 7.59415084 -1 5 C-1.99 4.34 -2.98 3.68 -4 3 C-2.68 2.01 -1.36 1.02 0 0 Z " fill="#C2BEB8" transform="translate(27,60)"/>
<path d="M0 0 C3 3 3 3 4 5 C4.66 4.34 5.32 3.68 6 3 C6.19412181 4.47831221 6.38012131 5.95769316 6.5625 7.4375 C6.66691406 8.26121094 6.77132812 9.08492187 6.87890625 9.93359375 C6.91886719 10.61550781 6.95882812 11.29742187 7 12 C6.67 12.33 6.34 12.66 6 13 C4.02 13 2.04 13 0 13 C0 8.71 0 4.42 0 0 Z " fill="#C3B2A3" transform="translate(127,38)"/>
<path d="M0 0 C1.32 0.33 2.64 0.66 4 1 C4 1.66 4 2.32 4 3 C4.66 3.33 5.32 3.66 6 4 C4.71064081 5.14842923 3.41843421 6.29366227 2.125 7.4375 C1.04605469 8.39462891 1.04605469 8.39462891 -0.0546875 9.37109375 C-2 11 -2 11 -4 12 C-4.66 11.67 -5.32 11.34 -6 11 C-4.74194623 6.49197399 -3.09592835 3.5087188 0 0 Z " fill="#BAA89E" transform="translate(23,64)"/>
<path d="M0 0 C9.90611961 9.62308762 9.90611961 9.62308762 10.1875 13.75 C10.125625 14.4925 10.06375 15.235 10 16 C10.66 16.66 11.32 17.32 12 18 C10.125 19.0625 10.125 19.0625 8 20 C7.34 19.67 6.68 19.34 6 19 C6.309375 18.175 6.61875 17.35 6.9375 16.5 C7.01149325 12.35637826 6.35859641 11.79816768 3.6875 8.8125 C3.05199219 8.15894531 2.41648437 7.50539063 1.76171875 6.83203125 C0 5 0 5 -2 2 C-1.34 2 -0.68 2 0 2 C0 1.34 0 0.68 0 0 Z " fill="#A29F99" transform="translate(71,26)"/>
<path d="M0 0 C7.26 0 14.52 0 22 0 C22.061875 2.43375 22.12375 4.8675 22.1875 7.375 C22.21481201 8.13989746 22.24212402 8.90479492 22.27026367 9.69287109 C22.2922324 11.46407019 22.14874263 13.23492083 22 15 C21.01 15.66 20.02 16.32 19 17 C19 15.35 19 13.7 19 12 C19.66 12 20.32 12 21 12 C21 8.37 21 4.74 21 1 C14.4 1 7.8 1 1 1 C1 2.65 1 4.3 1 6 C-0.32 6.33 -1.64 6.66 -3 7 C-2.01 4.69 -1.02 2.38 0 0 Z " fill="#2D2B27" transform="translate(31,53)"/>
<path d="M0 0 C1.11375 0.639375 2.2275 1.27875 3.375 1.9375 C10.33942293 5.41354826 17.48277995 5.47076045 25 4 C24.67 4.66 24.34 5.32 24 6 C19.6786267 7.44045777 15.55092534 6.91523813 11.03125 6.7421875 C7.99404409 6.71977945 7.99404409 6.71977945 6.09375 8.5078125 C5.55234375 9.24644531 5.55234375 9.24644531 5 10 C2.37613513 6.93882432 2 6.26826873 2 2 C1.34 2 0.68 2 0 2 C0 1.34 0 0.68 0 0 Z " fill="#4E5050" transform="translate(66,96)"/>
<path d="M0 0 C0.33 0 0.66 0 1 0 C3.17707363 14.96738117 3.17707363 14.96738117 0.35546875 19.83984375 C-1.66571178 21.79547248 -3.67827291 23.42012654 -6 25 C-6.66 25.66 -7.32 26.32 -8 27 C-8.7421875 25.20703125 -8.7421875 25.20703125 -9 23 C-7.3828125 21.38671875 -7.3828125 21.38671875 -5.125 19.6875 C-1.52877721 16.39827183 -0.46733016 13.96749958 -0.07763672 9.08129883 C0.03555999 6.04670143 0.06326237 3.03659386 0 0 Z " fill="#948F87" transform="translate(53,53)"/>
<path d="M0 0 C1.125 3.75 1.125 3.75 0 6 C-0.66 6 -1.32 6 -2 6 C-1.67 7.32 -1.34 8.64 -1 10 C-3.75 11.625 -3.75 11.625 -7 13 C-9.375 12.1875 -9.375 12.1875 -11 11 C-10.01 10.67 -9.02 10.34 -8 10 C-7.5978125 9.1646875 -7.5978125 9.1646875 -7.1875 8.3125 C-5.42097496 4.87242492 -2.78863174 2.66738688 0 0 Z " fill="#A69A93" transform="translate(91,134)"/>
<path d="M0 0 C0.33 0.99 0.66 1.98 1 3 C-2.00313748 4.50156874 -4.79067522 4.09281204 -8.125 4.0625 C-9.40632813 4.05347656 -10.68765625 4.04445313 -12.0078125 4.03515625 C-13.48894531 4.01775391 -13.48894531 4.01775391 -15 4 C-15 3.34 -15 2.68 -15 2 C-9.87080814 -0.10428384 -5.4389165 -0.21755666 0 0 Z " fill="#C0B0A5" transform="translate(53,30)"/>
<path d="M0 0 C0 3 0 3 -1.75 5.04296875 C-2.4925 5.75066406 -3.235 6.45835938 -4 7.1875 C-4.7425 7.90292969 -5.485 8.61835938 -6.25 9.35546875 C-7.11625 10.16951172 -7.11625 10.16951172 -8 11 C-8.66 10.67 -9.32 10.34 -10 10 C-7.4 -0.6 -7.4 -0.6 0 0 Z " fill="#B1A095" transform="translate(81,12)"/>
<path d="M0 0 C1.32 0.66 2.64 1.32 4 2 C2.38405168 4.04119788 0.7143618 6.04072937 -1 8 C-1.66 8 -2.32 8 -3 8 C-3 8.66 -3 9.32 -3 10 C-6.875 8.25 -6.875 8.25 -8 6 C-7.34 5.67 -6.68 5.34 -6 5 C-6 4.01 -6 3.02 -6 2 C-5.01 2.33 -4.02 2.66 -3 3 C-2.01 2.01 -1.02 1.02 0 0 Z " fill="#171A1E" transform="translate(86,106)"/>
<path d="M0 0 C0.66 0.99 1.32 1.98 2 3 C0.71142987 4.31554021 -0.58095891 5.62734097 -1.875 6.9375 C-2.59429687 7.66839844 -3.31359375 8.39929688 -4.0546875 9.15234375 C-6 11 -6 11 -8 12 C-8.99 13.485 -8.99 13.485 -10 15 C-10 14.01 -10 13.02 -10 12 C-10.99 11.67 -11.98 11.34 -13 11 C-12.31292969 10.45730469 -11.62585938 9.91460937 -10.91796875 9.35546875 C-10.01691406 8.64003906 -9.11585937 7.92460938 -8.1875 7.1875 C-7.29417969 6.47980469 -6.40085937 5.77210937 -5.48046875 5.04296875 C-3.52923089 3.43588623 -1.73725024 1.82959577 0 0 Z " fill="#AAA59F" transform="translate(132,66)"/>
<path d="M0 0 C0.36923077 6.4 0.36923077 6.4 -1.5 9.4375 C-1.995 9.953125 -2.49 10.46875 -3 11 C-4.65 8.69 -6.3 6.38 -8 4 C-3.375 0 -3.375 0 0 0 Z " fill="#CABEB7" transform="translate(71,130)"/>
<path d="M0 0 C0.74362793 0.05236816 1.48725586 0.10473633 2.25341797 0.15869141 C3.05908203 0.21025391 3.86474609 0.26181641 4.69482422 0.31494141 C5.95746094 0.41162109 5.95746094 0.41162109 7.24560547 0.51025391 C8.09509766 0.56697266 8.94458984 0.62369141 9.81982422 0.68212891 C11.92073997 0.82376368 14.02077881 0.97829717 16.12060547 1.13525391 C16.12060547 6.41525391 16.12060547 11.69525391 16.12060547 17.13525391 C15.79060547 17.13525391 15.46060547 17.13525391 15.12060547 17.13525391 C15.12060547 12.18525391 15.12060547 7.23525391 15.12060547 2.13525391 C6.93701209 2.15507881 6.93701209 2.15507881 -0.87939453 4.13525391 C-0.87939453 5.12525391 -0.87939453 6.11525391 -0.87939453 7.13525391 C-2.52939453 6.80525391 -4.17939453 6.47525391 -5.87939453 6.13525391 C-4.88939453 5.80525391 -3.89939453 5.47525391 -2.87939453 5.13525391 C-3.20939453 4.14525391 -3.53939453 3.15525391 -3.87939453 2.13525391 C-1.87939453 0.13525391 -1.87939453 0.13525391 0 0 Z " fill="#575754" transform="translate(91.87939453125,51.86474609375)"/>
<path d="M0 0 C1.65 0 3.3 0 5 0 C5 1.32 5 2.64 5 4 C4.01 4 3.02 4 2 4 C2.33 4.99 2.66 5.98 3 7 C2.67 7.66 2.34 8.32 2 9 C2.28241883 11.3400417 2.61250787 13.67504723 3 16 C2.01 16 1.02 16 0 16 C0 10.72 0 5.44 0 0 Z " fill="#0F1113" transform="translate(57,54)"/>
<path d="M0 0 C0.53625 0.680625 1.0725 1.36125 1.625 2.0625 C4.35076561 5.43384168 7.16483178 8.72065543 10 12 C9.34 13.32 8.68 14.64 8 16 C7.62875 15.29875 7.2575 14.5975 6.875 13.875 C5.25154433 11.38570131 3.91468845 9.94318545 1.75 8 C0.1640625 6.4921875 0.1640625 6.4921875 -1 5 C-0.875 2.125 -0.875 2.125 0 0 Z " fill="#B4B3AE" transform="translate(109,65)"/>
<path d="M0 0 C0.75 1.6875 0.75 1.6875 1 4 C-0.30745749 5.68704193 -1.64172029 7.35360035 -3 9 C-3 10.32 -3 11.64 -3 13 C-5.475 12.01 -5.475 12.01 -8 11 C-8 9.68 -8 8.36 -8 7 C-6.36935236 5.94228261 -4.69719127 4.94726954 -3 4 C-1.21655822 1.93045153 -1.21655822 1.93045153 0 0 Z " fill="#B5B1A8" transform="translate(88,31)"/>
<path d="M0 0 C1.27617188 0.02320312 2.55234375 0.04640625 3.8671875 0.0703125 C5.78917969 0.09738281 5.78917969 0.09738281 7.75 0.125 C9.23113281 0.15980469 9.23113281 0.15980469 10.7421875 0.1953125 C10.7421875 0.5253125 10.7421875 0.8553125 10.7421875 1.1953125 C4.3071875 1.6903125 4.3071875 1.6903125 -2.2578125 2.1953125 C-2.5878125 3.1853125 -2.9178125 4.1753125 -3.2578125 5.1953125 C-6.0703125 7.9453125 -6.0703125 7.9453125 -9.2578125 10.1953125 C-11.45703125 9.8359375 -11.45703125 9.8359375 -13.2578125 9.1953125 C-12.70351562 8.71320313 -12.14921875 8.23109375 -11.578125 7.734375 C-10.85367188 7.10273437 -10.12921875 6.47109375 -9.3828125 5.8203125 C-8.66351563 5.19382812 -7.94421875 4.56734375 -7.203125 3.921875 C-2.98606274 0.17902055 -2.98606274 0.17902055 0 0 Z " fill="#999692" transform="translate(96.2578125,104.8046875)"/>
<path d="M0 0 C2.0625 0.1875 2.0625 0.1875 4 1 C4.66666667 3 5.33333333 5 6 7 C6.99 7.66 7.98 8.32 9 9 C8.67 9.66 8.34 10.32 8 11 C4.7 8.03 1.4 5.06 -2 2 C-1.34 1.34 -0.68 0.68 0 0 Z M8 5 C8.99 5 9.98 5 11 5 C11.33 5.99 11.66 6.98 12 8 C11.01 8 10.02 8 9 8 C8.67 7.01 8.34 6.02 8 5 Z " fill="#D1C0B8" transform="translate(13,83)"/>
<path d="M0 0 C1 2 1 2 0 6 C3.96 6 7.92 6 12 6 C12 6.33 12 6.66 12 7 C5.565 7.495 5.565 7.495 -1 8 C-1.33 7.34 -1.66 6.68 -2 6 C-1.67 5.34 -1.34 4.68 -1 4 C-6.28 4 -11.56 4 -17 4 C-17 3.67 -17 3.34 -17 3 C-15.94039062 2.95101562 -14.88078125 2.90203125 -13.7890625 2.8515625 C-12.40101503 2.77653291 -11.01299549 2.70098515 -9.625 2.625 C-8.57699219 2.57859375 -8.57699219 2.57859375 -7.5078125 2.53125 C-3.29814173 2.40500502 -3.29814173 2.40500502 0 0 Z " fill="#4B4D4B" transform="translate(74,50)"/>
<path d="M0 0 C2 1.3125 2 1.3125 4 3 C4 3.99 4 4.98 4 6 C3.34 6 2.68 6 2 6 C1.71125 6.639375 1.4225 7.27875 1.125 7.9375 C0 10 0 10 -2 11 C-2 10.01 -2 9.02 -2 8 C-2.66 8 -3.32 8 -4 8 C-4 4.99472353 -2.05564773 4.05564773 0 2 C0 1.34 0 0.68 0 0 Z " fill="#242727" transform="translate(142,75)"/>
<path d="M0 0 C1.60031344 3.20062687 0.03173691 5.72271806 -1 9 C-1.66 9 -2.32 9 -3 9 C-3.33 9.66 -3.66 10.32 -4 11 C-4.99 10.34 -5.98 9.68 -7 9 C-5.44499019 5.18315774 -2.96404505 2.80804268 0 0 Z " fill="#34312C" transform="translate(23,72)"/>
<path d="M0 0 C0.66 0 1.32 0 2 0 C0.52307692 7.50769231 0.52307692 7.50769231 -2.125 10 C-2.74375 10.33 -3.3625 10.66 -4 11 C-4.66 9.35 -5.32 7.7 -6 6 C-4 4 -2 2 0 0 Z " fill="#262A2C" transform="translate(309,63)"/>
<path d="M0 0 C1.22589844 0.01353516 1.22589844 0.01353516 2.4765625 0.02734375 C3.41628906 0.04474609 3.41628906 0.04474609 4.375 0.0625 C4.045 0.7225 3.715 1.3825 3.375 2.0625 C2.055 1.7325 0.735 1.4025 -0.625 1.0625 C-0.955 2.7125 -1.285 4.3625 -1.625 6.0625 C-3.605 5.4025 -5.585 4.7425 -7.625 4.0625 C-7.295 3.0725 -6.965 2.0825 -6.625 1.0625 C-4.21954362 -0.14022819 -2.67503047 -0.03821472 0 0 Z " fill="#131717" transform="translate(97.625,53.9375)"/>
<path d="M0 0 C3 1 3 1 4.3125 3.3125 C5 6 5 6 4.125 8.3125 C3.568125 9.1478125 3.568125 9.1478125 3 10 C0.4375 7.75 0.4375 7.75 -2 5 C-1.87165745 2.68983403 -1.63394255 1.63394255 0 0 Z " fill="#202122" transform="translate(74,102)"/>
<path d="M0 0 C0.66 0.66 1.32 1.32 2 2 C2.66 1.67 3.32 1.34 4 1 C3.67 3.31 3.34 5.62 3 8 C2.01 7.67 1.02 7.34 0 7 C-0.66 7.66 -1.32 8.32 -2 9 C-2.33 6.69 -2.66 4.38 -3 2 C-2.01 1.34 -1.02 0.68 0 0 Z " fill="#2A2B2B" transform="translate(31,92)"/>
<path d="M0 0 C4.62 0 9.24 0 14 0 C14 0.66 14 1.32 14 2 C8.06 2.495 8.06 2.495 2 3 C1.67 6.3 1.34 9.6 1 13 C0.67 13 0.34 13 0 13 C0 8.71 0 4.42 0 0 Z " fill="#0D0C0A" transform="translate(111,36)"/>
<path d="M0 0 C0.66 0 1.32 0 2 0 C2.33 0.99 2.66 1.98 3 3 C2.01 3 1.02 3 0 3 C-0.66 4.65 -1.32 6.3 -2 8 C-2.99 8 -3.98 8 -5 8 C-5 8.66 -5 9.32 -5 10 C-5.66 9.67 -6.32 9.34 -7 9 C-6.690625 8.4225 -6.38125 7.845 -6.0625 7.25 C-5.07416636 5.15705816 -4.4831387 3.25464725 -4 1 C-2.68 1.33 -1.36 1.66 0 2 C0 1.34 0 0.68 0 0 Z " fill="#0E1214" transform="translate(83,17)"/>
<path d="M0 0 C-0.57889381 3.28754511 -1.54828411 4.93672495 -3.9375 7.25 C-4.46214844 7.77078125 -4.98679687 8.2915625 -5.52734375 8.828125 C-7 10 -7 10 -9 10 C-9.33 9.01 -9.66 8.02 -10 7 C-8.35 6.34 -6.7 5.68 -5 5 C-5 3.68 -5 2.36 -5 1 C-3 0 -3 0 0 0 Z " fill="#CEBEB5" transform="translate(94,139)"/>
<path d="M0 0 C1.1725131 0.95117134 2.33787015 1.91117009 3.5 2.875 C4.47453125 3.67550781 4.47453125 3.67550781 5.46875 4.4921875 C6.22671875 5.23855469 6.22671875 5.23855469 7 6 C7 6.66 7 7.32 7 8 C7.99 8.33 8.98 8.66 10 9 C9.67 9.66 9.34 10.32 9 11 C4.21495828 8.51545911 1.13922331 6.52048157 -2 2 C-1.34 2 -0.68 2 0 2 C0 1.34 0 0.68 0 0 Z " fill="#A5A19A" transform="translate(46,80)"/>
<path d="M0 0 C1.98 1.65 3.96 3.3 6 5 C5.01 6.32 4.02 7.64 3 9 C0 8 0 8 -1.3125 6.1875 C-2 4 -2 4 -1.125 1.75 C-0.75375 1.1725 -0.3825 0.595 0 0 Z " fill="#B5A397" transform="translate(18,82)"/>
<path d="M0 0 C3.375 0.3125 3.375 0.3125 7 1 C9 4 9 4 8.625 6.1875 C8.41875 6.785625 8.2125 7.38375 8 8 C6.66372225 6.85760183 5.33104612 5.71098945 4 4.5625 C3.2575 3.92441406 2.515 3.28632812 1.75 2.62890625 C1.1725 2.09136719 0.595 1.55382812 0 1 C0 0.67 0 0.34 0 0 Z " fill="#2A2D2C" transform="translate(31,66)"/>
<path d="M0 0 C3.26008643 3.16952847 6.22237877 6.39937989 9 10 C6.03 9.505 6.03 9.505 3 9 C2.67 7.35 2.34 5.7 2 4 C1.01 3.67 0.02 3.34 -1 3 C-0.67 2.01 -0.34 1.02 0 0 Z M3 10 C5 11 5 11 5 11 Z " fill="#A79A93" transform="translate(71,134)"/>
<path d="M0 0 C1.32 0.33 2.64 0.66 4 1 C1.36 3.97 -1.28 6.94 -4 10 C-4.99 9.34 -5.98 8.68 -7 8 C-4.69 5.36 -2.38 2.72 0 0 Z " fill="#AFACA6" transform="translate(76,121)"/>
<path d="M0 0 C-0.33 1.98 -0.66 3.96 -1 6 C-3.64 5.67 -6.28 5.34 -9 5 C-9 4.34 -9 3.68 -9 3 C-8.34 3 -7.68 3 -7 3 C-7 2.34 -7 1.68 -7 1 C-4 0 -4 0 0 0 Z " fill="#0C0D0E" transform="translate(90,51)"/>
<path d="M0 0 C1.984375 1.01953125 1.984375 1.01953125 4 3 C4.29642569 5.71229503 4.38061189 7.99739732 4.25 10.6875 C4.23195313 11.38939453 4.21390625 12.09128906 4.1953125 12.81445312 C4.14826213 14.54355436 4.07651873 16.27195205 4 18 C3.67 18 3.34 18 3 18 C2.67 14.7 2.34 11.4 2 8 C1.34 8 0.68 8 0 8 C0 5.36 0 2.72 0 0 Z " fill="#292824" transform="translate(49,87)"/>
<path d="M0 0 C0.99 0.99 1.98 1.98 3 3 C1.68 4.32 0.36 5.64 -1 7 C-2.9375 6.1875 -2.9375 6.1875 -5 5 C-5.33 4.01 -5.66 3.02 -6 2 C-4.02 1.34 -2.04 0.68 0 0 Z " fill="#252624" transform="translate(84,31)"/>
<path d="M0 0 C0 3.20395416 -0.74335022 5.09399739 -2 8 C-1.01 8 -0.02 8 1 8 C1.33 9.32 1.66 10.64 2 12 C-3.75 10.125 -3.75 10.125 -6 9 C-4.3619751 5.48994665 -2.96865509 2.54456151 0 0 Z " fill="#D6CDC6" transform="translate(69,16)"/>
<path d="M0 0 C3.21524305 1.40844718 5.32183868 3.10344786 7.75 5.625 C8.67039063 6.57246094 8.67039063 6.57246094 9.609375 7.5390625 C10.29773438 8.26222656 10.29773438 8.26222656 11 9 C10.67 9.66 10.34 10.32 10 11 C8.948125 9.8553125 8.948125 9.8553125 7.875 8.6875 C5.03647396 6.03409522 2.53050949 4.55999257 -1 3 C-0.67 2.01 -0.34 1.02 0 0 Z " fill="#D7CBC0" transform="translate(139,64)"/>
<path d="M0 0 C0.99 0.33 1.98 0.66 3 1 C3.33 1.99 3.66 2.98 4 4 C2 6 2 6 -0.625 6.125 C-1.40875 6.08375 -2.1925 6.0425 -3 6 C-3.33 5.01 -3.66 4.02 -4 3 C-2.1875 1.4375 -2.1875 1.4375 0 0 Z " fill="#080C0D" transform="translate(503,63)"/>
<path d="M0 0 C1.32 0.66 2.64 1.32 4 2 C3.875 3.8125 3.875 3.8125 3 6 C-0.0625 7.75 -0.0625 7.75 -3 9 C-3 6 -3 6 -1 4 C-1.66 3.67 -2.32 3.34 -3 3 C-2.01 2.01 -1.02 1.02 0 0 Z " fill="#272728" transform="translate(134,68)"/>
<path d="M0 0 C0.33 0.66 0.66 1.32 1 2 C1.66 1.67 2.32 1.34 3 1 C3 1.66 3 2.32 3 3 C3.99 3.33 4.98 3.66 6 4 C5.34 4.66 4.68 5.32 4 6 C1.5625 5.875 1.5625 5.875 -1 5 C-2.8125 2.9375 -2.8125 2.9375 -4 1 C-2 0 -2 0 0 0 Z " fill="#2C2E2E" transform="translate(132,84)"/>
<path d="M0 0 C0.66 0.99 1.32 1.98 2 3 C0.02 4.98 -1.96 6.96 -4 9 C-5.32 8.34 -6.64 7.68 -8 7 C-6.68 6.01 -5.36 5.02 -4 4 C-3.34 4.33 -2.68 4.66 -2 5 C-1.34 3.35 -0.68 1.7 0 0 Z " fill="#2C2E2D" transform="translate(48,68)"/>
<path d="M0 0 C3.53586014 3.17320782 5.58578031 5.16743695 6 10 C4.85073734 9.04578192 3.70569459 8.08647955 2.5625 7.125 C1.92441406 6.59132813 1.28632812 6.05765625 0.62890625 5.5078125 C-1 4 -1 4 -2 2 C-1.34 2 -0.68 2 0 2 C0 1.34 0 0.68 0 0 Z " fill="#A19E99" transform="translate(85,42)"/>
<path d="M0 0 C0.33 0 0.66 0 1 0 C1 5.61 1 11.22 1 17 C1.66 17.33 2.32 17.66 3 18 C2.01 18.66 1.02 19.32 0 20 C-0.95946595 15.38034912 -0.96102244 11.31870875 -0.5625 6.625 C-0.46066406 5.37976563 -0.35882813 4.13453125 -0.25390625 2.8515625 C-0.17011719 1.91054687 -0.08632813 0.96953125 0 0 Z " fill="#CAC2BB" transform="translate(54,111)"/>
<path d="M0 0 C1.32 1.65 2.64 3.3 4 5 C2.3125 5.8125 2.3125 5.8125 0 6 C-2.75 3.5625 -2.75 3.5625 -5 1 C-3.35 0.67 -1.7 0.34 0 0 Z " fill="#252624" transform="translate(27,84)"/>
<path d="M0 0 C0 0.99 0 1.98 0 3 C0.31088368 4.67099977 0.64080332 6.33871537 1 8 C0.34 8 -0.32 8 -1 8 C-1.33 8.66 -1.66 9.32 -2 10 C-2.66 9.34 -3.32 8.68 -4 8 C-3.77256695 5.04337034 -3.38764062 3.44966312 -1.4375 1.1875 C-0.963125 0.795625 -0.48875 0.40375 0 0 Z " fill="#D1C4BE" transform="translate(12,74)"/>
<path d="M0 0 C1.32 0.66 2.64 1.32 4 2 C3.34 2.66 2.68 3.32 2 4 C0.68 4 -0.64 4 -2 4 C-2 5.32 -2 6.64 -2 8 C-2.66 8 -3.32 8 -4 8 C-4 7.34 -4 6.68 -4 6 C-4.66 5.67 -5.32 5.34 -6 5 C-4.02 3.35 -2.04 1.7 0 0 Z " fill="#262420" transform="translate(81,44)"/>
<path d="M0 0 C1.0828125 0.2475 1.0828125 0.2475 2.1875 0.5 C4.86427545 0.97587119 7.28949487 1.077443 10 1 C7.28817788 3.60334924 6.10866187 3.99456691 2.25 4.1875 C1.1775 4.125625 0.105 4.06375 -1 4 C-1.33 3.34 -1.66 2.68 -2 2 C-1.34 2 -0.68 2 0 2 C0 1.34 0 0.68 0 0 Z " fill="#3E4242" transform="translate(97,128)"/>
<path d="M0 0 C0 0.99 0 1.98 0 3 C-0.66 3 -1.32 3 -2 3 C-2 3.99 -2 4.98 -2 6 C-3.98 6.66 -5.96 7.32 -8 8 C-6.70989008 5.12206249 -5.42638194 3.03816083 -3 1 C-2.01 0.67 -1.02 0.34 0 0 Z " fill="#1B1918" transform="translate(133,71)"/>
<path d="M0 0 C1.32 0 2.64 0 4 0 C4.12375 0.804375 4.2475 1.60875 4.375 2.4375 C4.684375 3.7059375 4.684375 3.7059375 5 5 C5.66 5.33 6.32 5.66 7 6 C4.03 5.505 4.03 5.505 1 5 C0.67 3.35 0.34 1.7 0 0 Z " fill="#BEAA9D" transform="translate(69,138)"/>
<path d="M0 0 C-1.25 1.5625 -1.25 1.5625 -3 3 C-6.37080456 2.78252874 -8.44609064 1.09785412 -11 -1 C-6.99799622 -2.60080151 -3.95443764 -1.29279692 0 0 Z " fill="#57595A" transform="translate(68,130)"/>
<path d="M0 0 C0.66 0 1.32 0 2 0 C1.1875 1.9375 1.1875 1.9375 0 4 C-0.99 4.33 -1.98 4.66 -3 5 C-3 5.66 -3 6.32 -3 7 C-6.875 5.25 -6.875 5.25 -8 3 C-6.576875 2.814375 -6.576875 2.814375 -5.125 2.625 C-1.91332809 2.28312823 -1.91332809 2.28312823 0 0 Z " fill="#30312D" transform="translate(86,109)"/>
<path d="M0 0 C1.32 0.99 2.64 1.98 4 3 C3.75 4.8125 3.75 4.8125 3 7 C1.68 7.99 0.36 8.98 -1 10 C-0.67 6.7 -0.34 3.4 0 0 Z " fill="#1A1A19" transform="translate(113,75)"/>
<path d="M0 0 C1.32 0.66 2.64 1.32 4 2 C3.38125 2.433125 2.7625 2.86625 2.125 3.3125 C-0.2197245 4.99740483 -0.2197245 4.99740483 -2 8 C-2 7.01 -2 6.02 -2 5 C-2.99 4.67 -3.98 4.34 -5 4 C-3.35 2.68 -1.7 1.36 0 0 Z " fill="#A19991" transform="translate(124,73)"/>
<path d="M0 0 C0.33 0.99 0.66 1.98 1 3 C0.67 3.33 0.34 3.66 0 4 C-0.36760731 6.32817964 -0.70241581 8.6618385 -1 11 C-2.32 10.01 -3.64 9.02 -5 8 C-3.62845496 5.04590299 -2.01136276 2.55991624 0 0 Z " fill="#302D2A" transform="translate(89,34)"/>
<path d="M0 0 C1.485 0.99 1.485 0.99 3 2 C3 2.66 3 3.32 3 4 C3.66 4.33 4.32 4.66 5 5 C4.67 5.99 4.34 6.98 4 8 C2.35 6.68 0.7 5.36 -1 4 C-0.67 2.68 -0.34 1.36 0 0 Z " fill="#B4A69C" transform="translate(90,18)"/>
<path d="M0 0 C0.625 1.8125 0.625 1.8125 1 4 C0.01 5.485 0.01 5.485 -1 7 C-1.33 7 -1.66 7 -2 7 C-2.33 7.66 -2.66 8.32 -3 9 C-3.66 7.68 -4.32 6.36 -5 5 C-3.35 3.35 -1.7 1.7 0 0 Z " fill="#373631" transform="translate(89,112)"/>
<path d="M0 0 C0.33 0.99 0.66 1.98 1 3 C-2.16363636 7.58181818 -2.16363636 7.58181818 -5 9 C-5 8.34 -5 7.68 -5 7 C-5.66 6.67 -6.32 6.34 -7 6 C-4.69 4.02 -2.38 2.04 0 0 Z " fill="#494C4D" transform="translate(99,93)"/>
<path d="M0 0 C3 0 3 0 4.38671875 1.3125 C5.59114583 2.875 6.79557292 4.4375 8 6 C7.01 6 6.02 6 5 6 C5 6.66 5 7.32 5 8 C4.01 8 3.02 8 2 8 C2 7.34 2 6.68 2 6 C2.66 6 3.32 6 4 6 C4 5.34 4 4.68 4 4 C3.34 4 2.68 4 2 4 C2 3.01 2 2.02 2 1 C1.34 0.67 0.68 0.34 0 0 Z " fill="#212121" transform="translate(27,68)"/>
<path d="M0 0 C0 4.05345102 -1.58160112 5.8215329 -4 9 C-4.99 9.33 -5.98 9.66 -7 10 C-6.42424336 6.64749299 -5.40693737 5.06181371 -2.9375 2.75 C-2.38964844 2.22921875 -1.84179688 1.7084375 -1.27734375 1.171875 C-0.64505859 0.59179688 -0.64505859 0.59179688 0 0 Z " fill="#C9B7B0" transform="translate(22,64)"/>
<path d="M0 0 C0.33 0 0.66 0 1 0 C3.27678571 8.03571429 3.27678571 8.03571429 2 12 C1.34 12 0.68 12 0 12 C0 8.04 0 4.08 0 0 Z " fill="#090B0B" transform="translate(57,58)"/>
<path d="M0 0 C1.134375 0.020625 2.26875 0.04125 3.4375 0.0625 C3.4375 1.0525 3.4375 2.0425 3.4375 3.0625 C1.1275 3.7225 -1.1825 4.3825 -3.5625 5.0625 C-4.125 3.125 -4.125 3.125 -4.5625 1.0625 C-3.5625 0.0625 -3.5625 0.0625 0 0 Z " fill="#0A0B0C" transform="translate(82.5625,46.9375)"/>
<path d="M0 0 C0.99 0.33 1.98 0.66 3 1 C2.34 1 1.68 1 1 1 C1 1.66 1 2.32 1 3 C1.66 3 2.32 3 3 3 C2.67 3.66 2.34 4.32 2 5 C-0.64860427 5.59355614 -3.29197322 5.74209269 -6 6 C-4 4 -2 2 0 0 Z " fill="#CDC1B9" transform="translate(81,5)"/>
<path d="M0 0 C-1.22934015 3.68802044 -2.93859378 4.72356973 -6 7 C-6.66 6.34 -7.32 5.68 -8 5 C-3.375 0 -3.375 0 0 0 Z " fill="#AFADA6" transform="translate(116,84)"/>
<path d="M0 0 C0.763125 0.20625 1.52625 0.4125 2.3125 0.625 C1.9825 1.285 1.6525 1.945 1.3125 2.625 C0.69375 2.769375 0.075 2.91375 -0.5625 3.0625 C-3.05460392 3.72217457 -4.0204446 4.70788629 -5.6875 6.625 C-5.875 4.25 -5.875 4.25 -5.6875 1.625 C-2.6875 -0.375 -2.6875 -0.375 0 0 Z " fill="#0B0E0F" transform="translate(583.6875,66.375)"/>
<path d="M0 0 C0.99 0.66 1.98 1.32 3 2 C1.25 5.875 1.25 5.875 -1 7 C-1.66 6.67 -2.32 6.34 -3 6 C-2 4 -1 2 0 0 Z " fill="#282724" transform="translate(90,23)"/>
<path d="M0 0 C1.32 0.66 2.64 1.32 4 2 C3.01 2.495 3.01 2.495 2 3 C2 3.66 2 4.32 2 5 C0.02 5 -1.96 5 -4 5 C-2.68 3.35 -1.36 1.7 0 0 Z " fill="#353330" transform="translate(81,14)"/>
<path d="M0 0 C0.66 0.33 1.32 0.66 2 1 C2 1.99 2 2.98 2 4 C2.99 4 3.98 4 5 4 C5.33 3.34 5.66 2.68 6 2 C6.99 3.485 6.99 3.485 8 5 C7.34 5.66 6.68 6.32 6 7 C3.69 6.34 1.38 5.68 -1 5 C-0.67 3.35 -0.34 1.7 0 0 Z " fill="#9C968E" transform="translate(78,116)"/>
<path d="M0 0 C0.66 0.99 1.32 1.98 2 3 C-0.97 5.475 -0.97 5.475 -4 8 C-3.50168276 4.31245243 -2.89932357 2.39509338 0 0 Z " fill="#B0AAA1" transform="translate(34,85)"/>
<path d="M0 0 C3.4375 0.8125 3.4375 0.8125 7 2 C7.33 2.99 7.66 3.98 8 5 C6.68 5 5.36 5 4 5 C1.75 2.5 1.75 2.5 0 0 Z " fill="#232121" transform="translate(114,71)"/>
<path d="M0 0 C0.8971875 0.5259375 0.8971875 0.5259375 1.8125 1.0625 C0.8225 1.5575 0.8225 1.5575 -0.1875 2.0625 C-1.1775 1.7325 -2.1675 1.4025 -3.1875 1.0625 C-3.1875 1.7225 -3.1875 2.3825 -3.1875 3.0625 C-2.5275 3.3925 -1.8675 3.7225 -1.1875 4.0625 C-3.4975 3.7325 -5.8075 3.4025 -8.1875 3.0625 C-5.67391791 0.30952914 -3.81682031 -1.63578013 0 0 Z " fill="#4D4D4D" transform="translate(67.1875,25.9375)"/>
<path d="M0 0 C1.32 0.99 2.64 1.98 4 3 C3.67 3.66 3.34 4.32 3 5 C0.9375 5.625 0.9375 5.625 -1 6 C-1.33 4.68 -1.66 3.36 -2 2 C-1.34 2 -0.68 2 0 2 C0 1.34 0 0.68 0 0 Z " fill="#D0C1B6" transform="translate(94,16)"/>
<path d="M0 0 C2.1723491 3.25852365 4.07119658 6.59244728 6 10 C4.35 9.67 2.7 9.34 1 9 C0.67 6.03 0.34 3.06 0 0 Z " fill="#5B5D60" transform="translate(60,86)"/>
<path d="M0 0 C1.65 1.65 3.3 3.3 5 5 C4.34 6.32 3.68 7.64 3 9 C0.125 4.25 0.125 4.25 -1 2 C-0.67 1.34 -0.34 0.68 0 0 Z " fill="#A6A19A" transform="translate(114,72)"/>
<path d="M0 0 C2 1.8125 2 1.8125 4 4 C4 4.99 4 5.98 4 7 C0.83884224 5.63016497 0.0072908 5.0109362 -2 2 C-1.34 2 -0.68 2 0 2 C0 1.34 0 0.68 0 0 Z " fill="#AFADA8" transform="translate(71,26)"/>
<path d="M0 0 C0 3 0 3 0 3 Z M-4 2 C-3.01 2.33 -2.02 2.66 -1 3 C-2.485 5.475 -2.485 5.475 -4 8 C-4.66 6.68 -5.32 5.36 -6 4 C-5.34 3.34 -4.68 2.68 -4 2 Z " fill="#B3A399" transform="translate(147,81)"/>
<path d="M0 0 C1.98 0.99 1.98 0.99 4 2 C2.25 5.875 2.25 5.875 0 7 C0 4.69 0 2.38 0 0 Z " fill="#3E3B3A" transform="translate(37,76)"/>
<path d="M0 0 C1.32 0.33 2.64 0.66 4 1 C4.33 2.65 4.66 4.3 5 6 C2.525 5.01 2.525 5.01 0 4 C0 2.68 0 1.36 0 0 Z " fill="#CEC7BB" transform="translate(80,38)"/>
<path d="M0 0 C1.485 0.99 1.485 0.99 3 2 C2.25 6.75 2.25 6.75 0 9 C-0.33 7.35 -0.66 5.7 -1 4 C-0.34 4 0.32 4 1 4 C0.67 2.68 0.34 1.36 0 0 Z " fill="#5E5D5B" transform="translate(133,93)"/>
<path d="M0 0 C1.98 0.99 3.96 1.98 6 3 C6 3.66 6 4.32 6 5 C3.69 5 1.38 5 -1 5 C-0.67 3.35 -0.34 1.7 0 0 Z " fill="#BFAB9F" transform="translate(12,79)"/>
<path d="M0 0 C0.66 0.33 1.32 0.66 2 1 C0.71034824 2.37562854 -0.62689293 3.70766393 -2 5 C-2.66 5 -3.32 5 -4 5 C-4.33 4.01 -4.66 3.02 -5 2 C-2.625 0.9375 -2.625 0.9375 0 0 Z " fill="#D7C8C0" transform="translate(89,144)"/>
<path d="M0 0 C1.65 0 3.3 0 5 0 C3.68 0.33 2.36 0.66 1 1 C1 2.65 1 4.3 1 6 C-0.32 6.33 -1.64 6.66 -3 7 C-2.01 4.69 -1.02 2.38 0 0 Z " fill="#646464" transform="translate(31,53)"/>
<path d="M0 0 C0.66 0.66 1.32 1.32 2 2 C1.67 2.66 1.34 3.32 1 4 C1.99 4.33 2.98 4.66 4 5 C4 5.33 4 5.66 4 6 C2.35 6 0.7 6 -1 6 C-1.042721 4.33388095 -1.04063832 2.66617115 -1 1 C-0.67 0.67 -0.34 0.34 0 0 Z " fill="#AEA399" transform="translate(111,29)"/>
</svg>
